<?xml version="1.0" encoding="UTF-8"?><svg id="type-password" xmlns="http://www.w3.org/2000/svg" viewBox="0 0 14.93 14.96"><defs><style>.cls-1{fill:#ddd;}</style></defs><path class="cls-1" d="M4.57,7.45c0,.36,.07,.71,.2,1.02l3.62-3.62c-.32-.13-.66-.2-1.02-.2-1.54,0-2.8,1.25-2.8,2.8Z"/><path class="cls-1" d="M3.54,9.71c-.95-.63-1.79-1.4-2.47-2.11-.02-.03-.04-.07-.04-.11s.02-.09,.04-.11c0,0,.01-.01,.02-.02,.72-.81,3.29-3.43,6.33-3.43,.54,0,1.09,.09,1.65,.25l.79-.79c-.82-.3-1.64-.47-2.44-.47C3.98,2.91,1.15,5.78,.35,6.67c-.2,.21-.32,.5-.32,.81s.12,.61,.32,.81c.67,.71,1.51,1.48,2.47,2.14l.72-.72Z"/><path class="cls-1" d="M14.64,6.81c-.45-.52-1.59-1.71-3.14-2.65l1.58-1.58c.2-.2,.2-.51,0-.71s-.51-.2-.71,0L1.86,12.38c-.2,.2-.2,.51,0,.71,.1,.1,.23,.15,.35,.15s.26-.05,.35-.15l1.78-1.78c.95,.45,1.98,.75,3.07,.75,3.53,0,6.41-2.98,7.19-3.87,.38-.38,.38-1.01,.02-1.37Zm-7.21,4.24c-.81,0-1.59-.19-2.32-.5l.76-.76c.43,.28,.94,.46,1.5,.46,1.54,0,2.8-1.25,2.8-2.8,0-.56-.17-1.07-.46-1.5l1.05-1.05c1.54,.87,2.69,2.07,3.13,2.6-.73,.83-3.35,3.56-6.46,3.56Z"/></svg>