<?xml version="1.0" encoding="utf-8"?>
<!-- Generator: Adobe Illustrator 26.5.3, SVG Export Plug-In . SVG Version: 6.00 Build 0)  -->
<svg version="1.1" id="sun_hover" xmlns="http://www.w3.org/2000/svg" xmlns:xlink="http://www.w3.org/1999/xlink" x="0px" y="0px"
	 viewBox="0 0 24.5 24.5" style="enable-background:new 0 0 24.5 24.5;" xml:space="preserve">
<style type="text/css">
	.st0{fill:#C7C7D8;}
</style>
<path class="st0" d="M23.8,18.4l-2.5-2.5l-1.6,1.6L19,16.9l1.6-1.6l-2.5-2.5l-1.6,1.6l-2.7-2.7c0.6-1.1,1-2.3,1-3.7
	c0-3.9-3.2-7.1-7.1-7.1C3.9,1,0.7,4.2,0.7,8.1c0,3.9,3.2,7.1,7.1,7.1c1.3,0,2.5-0.3,3.5-0.9l9.3,9.3l2.5-2.5l-1-1L23.8,18.4z
	 M4.3,8.1c0-1.9,1.6-3.5,3.5-3.5c1.9,0,3.5,1.6,3.5,3.5c0,1.9-1.6,3.5-3.5,3.5C5.9,11.6,4.3,10,4.3,8.1z"/>
</svg>
