<?xml version="1.0" encoding="UTF-8"?><svg id="sun" xmlns="http://www.w3.org/2000/svg" viewBox="0 0 14.93 14.96"><defs><style>.cls-1{fill:#f2f2f2;}</style></defs><path class="cls-1" d="M11.91,3.43c.07,0,.14-.03,.2-.08l1.21-1.16c.12-.12,.12-.31,0-.43-.12-.12-.31-.12-.43,0l-1.17,1.2c-.11,.11-.11,.29,0,.4,.05,.05,.12,.08,.2,.08Z"/><path class="cls-1" d="M7.52,2.1c.15,0,.28-.13,.28-.28l.03-1.36c0-.17-.14-.31-.31-.31s-.31,.14-.31,.31l.02,1.36c0,.15,.13,.28,.28,.28Z"/><path class="cls-1" d="M2.9,3.27c.05,.05,.12,.08,.2,.08s.15-.03,.2-.08c.11-.11,.11-.29,0-.4l-1.17-1.21c-.12-.12-.31-.12-.43,0-.12,.12-.12,.31,0,.43l1.2,1.17Z"/><path class="cls-1" d="M2.06,7.46c0-.15-.13-.28-.28-.28l-1.36-.03c-.17,0-.31,.14-.31,.31s.14,.31,.31,.31l1.36-.02c.15,0,.28-.13,.28-.28Z"/><path class="cls-1" d="M2.83,11.68l-1.21,1.17c-.06,.06-.09,.13-.09,.22s.03,.16,.09,.22c.06,.06,.13,.09,.22,.09s.16-.03,.22-.09l1.17-1.21c.11-.11,.11-.29,0-.4-.11-.11-.29-.11-.4,0Z"/><path class="cls-1" d="M7.41,12.86c-.15,0-.28,.13-.28,.28l-.03,1.36c0,.17,.14,.31,.31,.31s.31-.14,.31-.31l-.02-1.36c0-.15-.13-.28-.28-.28Z"/><path class="cls-1" d="M12.03,11.76c-.05-.05-.12-.08-.2-.08h0c-.07,0-.14,.03-.2,.08-.05,.05-.08,.12-.08,.2s.03,.15,.08,.2l1.17,1.21c.06,.06,.13,.09,.22,.09s.16-.03,.22-.09c.06-.06,.09-.13,.09-.22s-.03-.16-.09-.22l-1.2-1.18Z"/><path class="cls-1" d="M14.52,7.27l-1.36,.02c-.15,0-.28,.13-.28,.28s.13,.28,.28,.28l1.36,.03c.17,0,.31-.14,.31-.31s-.14-.31-.31-.31Z"/><path class="cls-1" d="M10.64,4.34c-1.75-1.75-4.6-1.75-6.35,0-1.75,1.75-1.75,4.6,0,6.35,1.75,1.75,4.6,1.75,6.35,0,1.75-1.75,1.75-4.6,0-6.35Z"/></svg>