<?xml version="1.0" encoding="utf-8"?>
<!-- Generator: Adobe Illustrator 26.5.3, SVG Export Plug-In . SVG Version: 6.00 Build 0)  -->
<svg version="1.1" id="sun_hover" xmlns="http://www.w3.org/2000/svg" xmlns:xlink="http://www.w3.org/1999/xlink" x="0px" y="0px"
	 viewBox="0 0 24.5 24.5" style="enable-background:new 0 0 24.5 24.5;" xml:space="preserve">
<style type="text/css">
	.st0{fill:#C7C7D8;}
	.st1{fill:none;stroke:#C7C7D8;stroke-width:1.5;stroke-linecap:round;stroke-miterlimit:10;}
</style>
<g>
	<path class="st0" d="M14.4,8.3c-0.7-0.4-1.4-0.6-2.3-0.6c-2.5,0-4.5,2-4.5,4.5c0,0.8,0.2,1.6,0.6,2.3L14.4,8.3z"/>
	<path class="st0" d="M9.2,15.6c0.8,0.7,1.8,1.1,2.9,1.1c2.5,0,4.5-2,4.5-4.5c0-1.1-0.4-2.1-1.1-2.9L9.2,15.6z"/>
</g>
<g>
	<path class="st0" d="M6.5,16.2c-1.8-1.1-3.3-2.5-4.5-3.8c-0.1-0.1-0.1-0.1-0.1-0.2s0-0.2,0.1-0.2l0,0c1.2-1.3,5.3-5.5,10.2-5.5
		c1.2,0,2.3,0.3,3.4,0.6l1.1-1.1c-1.4-0.6-2.9-1-4.5-1C6.7,5,2.1,9.6,0.9,11c-0.3,0.3-0.5,0.8-0.5,1.3c0,0.5,0.2,1,0.5,1.3
		c1.2,1.3,2.7,2.7,4.5,3.8L6.5,16.2z"/>
	<path class="st0" d="M23.8,11.2c-0.8-0.9-2.8-3-5.6-4.6l-1.1,1.1c2.7,1.4,4.8,3.6,5.6,4.4l0,0.1l0,0c-1.2,1.3-5.4,5.7-10.4,5.7
		c-1.5,0-3-0.4-4.4-1.1l-1.1,1.1c1.7,0.9,3.5,1.4,5.5,1.4c5.7,0,10.3-4.8,11.5-6.2C24.3,12.7,24.3,11.8,23.8,11.2z"/>
</g>
<line class="st1" x1="20" y1="5.8" x2="5.7" y2="20"/>
</svg>
