<?xml version="1.0" encoding="utf-8"?>
<!-- Generator: Adobe Illustrator 26.5.3, SVG Export Plug-In . SVG Version: 6.00 Build 0)  -->
<svg version="1.1" id="type-text" xmlns="http://www.w3.org/2000/svg" xmlns:xlink="http://www.w3.org/1999/xlink" x="0px" y="0px"
	 viewBox="0 0 14.9 15" style="enable-background:new 0 0 14.9 15;" xml:space="preserve">
<style type="text/css">
	.st0{fill:#7F7F7F;}
</style>
<path class="st0" d="M4.6,7.4c0,0.4,0.1,0.7,0.2,1l3.6-3.6c-0.3-0.1-0.7-0.2-1-0.2C5.8,4.6,4.6,5.9,4.6,7.4z"/>
<path class="st0" d="M3.5,9.7C2.5,9.1,1.7,8.3,1,7.6V7.5V7.4l0,0C1.7,6.6,4.3,4,7.3,4C8,3.9,8.5,4,9.1,4.2l0.8-0.8
	C9,3.1,8.2,2.9,7.4,2.9C4,2.9,1.1,5.8,0.3,6.7C0.1,6.9,0,7.2,0,7.5s0.1,0.6,0.3,0.8C1,9,1.9,9.8,2.8,10.4L3.5,9.7z"/>
<path class="st0" d="M14.6,6.8c-0.4-0.5-1.6-1.7-3.1-2.7l1.6-1.6c0.2-0.2,0.2-0.5,0-0.7s-0.5-0.2-0.7,0L1.9,12.4
	c-0.2,0.2-0.2,0.5,0,0.7c0.1,0.1,0.2,0.1,0.4,0.1s0.3-0.1,0.3-0.1l1.8-1.8c0.9,0.4,2,0.8,3.1,0.8c3.5,0,6.4-3,7.2-3.9
	C15,7.8,15,7.2,14.6,6.8L14.6,6.8z M7.4,11c-0.8,0-1.6-0.2-2.3-0.5l0.8-0.8c0.4,0.3,0.9,0.5,1.5,0.5c1.5,0,2.8-1.2,2.8-2.8
	c0-0.6-0.2-1.1-0.5-1.5l1.1-1.1c1.5,0.9,2.7,2.1,3.1,2.6C13.2,8.3,10.5,11.1,7.4,11L7.4,11z"/>
</svg>
