<?xml version="1.0" encoding="UTF-8"?><svg id="user_copia" xmlns="http://www.w3.org/2000/svg" viewBox="0 0 18.7 18.74"><defs><style>.cls-1{stroke-linecap:round;}.cls-1,.cls-2{fill:none;stroke:#212121;stroke-miterlimit:10;}.cls-3{fill:#212121;}</style></defs><circle class="cls-2" cx="6.1" cy="5.57" r="3.28"/><path class="cls-1" d="M11.56,15.95c0-2.72-2.45-4.92-5.46-4.92S.64,13.23,.64,15.95"/><g><circle class="cls-2" cx="13.6" cy="8.41" r="2.38"/><path class="cls-3" d="M13.6,11.88c-.84,0-1.61,.22-2.28,.59,.21,.26,.4,.54,.56,.83,.51-.26,1.1-.42,1.73-.42,1.91,0,3.47,1.38,3.47,3.07,0,.28,.22,.5,.5,.5s.5-.22,.5-.5c0-2.24-2-4.07-4.47-4.07Z"/></g></svg>