<?xml version="1.0" encoding="UTF-8"?><svg id="translate" xmlns="http://www.w3.org/2000/svg" viewBox="0 0 14.93 14.96"><defs><style>.cls-1{fill:#212121;}</style></defs><path class="cls-1" d="M5.69,4.83l-.59-1.75-.58,1.75h1.17Zm.25,.75h-1.67l-.66,1.99c-.07,.19-.28,.3-.48,.24-.19-.07-.3-.28-.23-.48l1.54-4.62c.09-.29,.36-.48,.66-.48s.58,.19,.67,.48l1.54,4.62c.07,.2-.04,.41-.23,.48-.04,.01-.08,.01-.12,.01-.16,0-.31-.1-.36-.25,0,0-.66-1.99-.66-1.99Z"/><path class="cls-1" d="M8.17,13.63c.07,.11,.19,.17,.31,.17,.06,0,.13,0,.18-.04,.61-.36,1.12-.74,1.54-1.12,.42,.38,.92,.76,1.53,1.12,.06,.03,.12,.04,.18,.04,.13,0,.24-.06,.31-.17,.1-.17,.04-.39-.13-.49-.55-.32-1-.66-1.38-1,1.29-1.4,1.51-2.73,1.55-3.18h.44c.2,0,.36-.16,.36-.36s-.16-.35-.36-.35h-2.15v-1.06c0-.2-.16-.36-.35-.36-.09,0-.17,.04-.23,.09v1.43c0,.21-.04,.42-.13,.61h1.7c-.04,.39-.27,1.49-1.34,2.67-.63-.7-.97-1.36-1.15-1.87-.19,.09-.4,.13-.63,.13h-.08c.2,.63,.59,1.43,1.35,2.25-.38,.34-.84,.68-1.39,1-.17,.1-.22,.32-.13,.49ZM1.79,.16h6.63c.86,0,1.55,.69,1.55,1.55V5.83h3.61c.61,0,1.11,.5,1.11,1.11v6.76c0,.61-.5,1.11-1.11,1.11H6.82c-.62,0-1.11-.5-1.11-1.11v-3.81H1.79c-.86,0-1.55-.69-1.55-1.54V1.71C.24,.85,.93,.16,1.79,.16Zm0,8.98h6.63c.44,0,.8-.35,.8-.79V1.71c0-.44-.36-.8-.8-.8H1.79c-.44,0-.8,.36-.8,.8v6.64c0,.44,.36,.79,.8,.79Z"/></svg>