<?xml version="1.0" encoding="utf-8"?>
<!-- Generator: Adobe Illustrator 26.5.3, SVG Export Plug-In . SVG Version: 6.00 Build 0)  -->
<svg version="1.1" id="sun_hover" xmlns="http://www.w3.org/2000/svg" xmlns:xlink="http://www.w3.org/1999/xlink" x="0px" y="0px"
	 viewBox="0 0 24.5 24.5" style="enable-background:new 0 0 24.5 24.5;" xml:space="preserve">
<style type="text/css">
	.st0{fill:#CED4DA;}
</style>
<g>
	<path class="st0" d="M17.1,7.8c0.1,0,0.2,0,0.2-0.1l0.8-0.8c0.1-0.1,0.1-0.3,0-0.4s-0.3-0.1-0.4,0l-0.8,0.8c-0.1,0.1-0.1,0.3,0,0.4
		C16.9,7.8,17,7.8,17.1,7.8L17.1,7.8z"/>
	<path class="st0" d="M12.3,4.9c-0.2,0-0.3,0.1-0.3,0.3v0.8c0,0.2,0.1,0.3,0.3,0.3s0.3-0.1,0.3-0.3V5.2C12.6,5.1,12.5,4.9,12.3,4.9z
		"/>
	<path class="st0" d="M6.9,6.4c-0.1-0.1-0.3-0.1-0.4,0s-0.1,0.3,0,0.4l0.8,0.8c0.1,0.1,0.1,0.1,0.2,0.1s0.2,0,0.2-0.1
		c0.1-0.1,0.1-0.3,0-0.4L6.9,6.4L6.9,6.4z"/>
	<path class="st0" d="M6.1,11.9H5.2c-0.2,0-0.3,0.1-0.3,0.3s0.1,0.3,0.3,0.3h0.8c0.2,0,0.3-0.1,0.3-0.3S6.2,11.9,6.1,11.9z"/>
	<path class="st0" d="M7.2,16.8l-0.8,0.8c-0.1,0.1-0.1,0.1-0.1,0.2s0,0.2,0.1,0.2s0.1,0.1,0.2,0.1s0.2,0,0.2-0.1l0.8-0.8
		c0.1-0.1,0.1-0.3,0-0.4S7.3,16.7,7.2,16.8L7.2,16.8z"/>
	<path class="st0" d="M12.2,18.1c-0.2,0-0.3,0.1-0.3,0.3v0.8c0,0.2,0.1,0.3,0.3,0.3s0.3-0.1,0.3-0.3v-0.8
		C12.5,18.2,12.3,18.1,12.2,18.1z"/>
	<path class="st0" d="M17.2,16.9c-0.1-0.1-0.1-0.1-0.2-0.1l0,0c-0.1,0-0.2,0-0.2,0.1c-0.1,0.1-0.1,0.1-0.1,0.2s0,0.2,0.1,0.2
		l0.8,0.8c0.1,0.1,0.1,0.1,0.2,0.1s0.2,0,0.2-0.1s0.1-0.1,0.1-0.2s0-0.2-0.1-0.2L17.2,16.9L17.2,16.9z"/>
	<path class="st0" d="M19.3,12h-0.8c-0.2,0-0.3,0.1-0.3,0.3s0.1,0.3,0.3,0.3h0.8c0.2,0,0.3-0.1,0.3-0.3S19.4,12,19.3,12z"/>
</g>
<path class="st0" d="M15.9,8.6c-2.1-2.1-5.4-2.1-7.4,0s-2.1,5.4,0,7.4s5.4,2.1,7.4,0S18,10.6,15.9,8.6z"/>
</svg>
