<?xml version="1.0" encoding="utf-8"?>
<!-- Generator: Adobe Illustrator 26.5.3, SVG Export Plug-In . SVG Version: 6.00 Build 0)  -->
<svg version="1.1" id="moon_hover" xmlns="http://www.w3.org/2000/svg" xmlns:xlink="http://www.w3.org/1999/xlink" x="0px" y="0px"
	 viewBox="0 0 24.5 24.5" style="enable-background:new 0 0 24.5 24.5;" xml:space="preserve">
<style type="text/css">
	.st0{fill:#184E77;}
</style>
<path class="st0" d="M12.2,19.6c-3.7,0-6.9-2.8-7.4-6.5c-0.6-4.1,2.2-7.8,6.2-8.4c0.3-0.1,0.6-0.1,0.9-0.1c0.2,0,0.3,0,0.4,0.2
	c0.1,0.2,0,0.3-0.1,0.4c-0.9,0.8-1.5,1.8-1.7,3c-0.4,2.5,1.3,5,3.8,5.5c1.8,0.4,3.4-0.1,4.6-1.4c0.1-0.1,0.1-0.1,0.2-0.2
	c0.1-0.1,0.3-0.2,0.4-0.1c0.1,0.1,0.2,0.2,0.2,0.3c0,0.5-0.1,1.1-0.2,1.6c-0.9,3.1-2.9,4.9-6.1,5.6c-0.1,0-0.2,0-0.4,0
	C12.8,19.6,12.5,19.6,12.2,19.6z"/>
</svg>
