<?xml version="1.0" encoding="utf-8"?>
<!-- Generator: Adobe Illustrator 26.5.3, SVG Export Plug-In . SVG Version: 6.00 Build 0)  -->
<svg version="1.1" id="sun_hover" xmlns="http://www.w3.org/2000/svg" xmlns:xlink="http://www.w3.org/1999/xlink" x="0px" y="0px"
	 viewBox="0 0 24.5 24.5" style="enable-background:new 0 0 24.5 24.5;" xml:space="preserve">
<style type="text/css">
	.st0{fill:#94879F;}
</style>
<g>
	<g>
		<path class="st0" d="M12.2,19.5c-4.7,0-8.8-3.3-11.3-6c-0.3-0.3-0.5-0.8-0.5-1.3c0-0.5,0.2-0.9,0.5-1.3c1.3-1.4,5.8-6,11.3-6
			c5.7,0,10.3,4.8,11.6,6.3c0.6,0.6,0.6,1.5,0,2.1C22.5,14.8,17.9,19.5,12.2,19.5z M12.2,6.5C7.3,6.5,3.1,10.7,2,12l0,0
			c-0.1,0.1-0.1,0.1-0.1,0.2s0,0.2,0.1,0.2C4.3,15,8.1,18,12.2,18c5,0,9.3-4.4,10.4-5.7l0,0l0-0.1C21.5,10.8,17.2,6.5,12.2,6.5z"/>
	</g>
</g>
<g>
	<circle class="st0" cx="12.1" cy="12.2" r="4.5"/>
</g>
</svg>
