<?xml version="1.0" encoding="utf-8"?>
<!-- Generator: Adobe Illustrator 26.5.3, SVG Export Plug-In . SVG Version: 6.00 Build 0)  -->
<svg version="1.1" id="sun_hover" xmlns="http://www.w3.org/2000/svg" xmlns:xlink="http://www.w3.org/1999/xlink" x="0px" y="0px"
	 viewBox="0 0 24.5 24.5" style="enable-background:new 0 0 24.5 24.5;" xml:space="preserve">
<style type="text/css">
	.st0{fill:#FDFDFD;}
</style>
<g>
	<path class="st0" d="M23,11.1c0-0.7-0.5-1.1-1.1-1.1s-1,0.4-1.1,1.1c0,0.2,0,0.4,0,0.6c-1.2,0.1-2.3,0.2-3.5,0.4
		c-2.9,0.4-5.7,1.2-8,3.1c-1.1,0.9-2,1.3-3.4,1c-1.1-0.2-2.2,0-3.4,0c0-0.3,0-0.5,0-0.7c0-3.4,0-6.8,0-10.1c0-1.2,0.4-1.6,1.6-1.6
		c2.8,0,5.5,0,8.3,0c0.3,0,0.7,0,0.9-0.2c0.5-0.3,0.6-0.7,0.5-1.2c-0.2-0.6-0.6-0.8-1.2-0.8c-2.9,0-5.9,0-8.8,0
		C1.7,1.5,0.3,2.9,0.3,5c0,5.2,0,10.4,0,15.5c0,2.2,1.4,3.6,3.6,3.6c5.2,0,10.4,0,15.5,0c2.2,0,3.6-1.4,3.6-3.6c0-2.6,0-5.3,0-7.9
		C23,12.2,23.1,11.6,23,11.1z M13.3,21.9c-3.1,0-6.1,0-9.2,0c-1.1,0-1.5-0.4-1.5-1.5c0-0.7,0-1.3,0-2.1c4.2-0.2,8.1,0.5,11.4,3.5
		C13.6,21.9,13.4,21.9,13.3,21.9z M20.8,20.5c0,1-0.4,1.4-1.4,1.4c-0.7,0-1.6,0.2-2.2-0.1c-0.6-0.2-1.1-1-1.6-1.5
		c-1.3-1.4-2.9-2.3-4.6-3.1c-0.2-0.1-0.3-0.1-0.6-0.3c3.1-2.3,6.7-3,10.4-3.1c0,0.3,0,0.5,0,0.8C20.8,16.7,20.8,18.6,20.8,20.5z"/>
	<path class="st0" d="M23,3.7c-0.6,0-1.2,0-1.8,0c-0.4,0-0.5-0.1-0.5-0.5c0-0.6,0-1.1,0-1.7c0-0.8-0.5-1.2-1.1-1.2
		c-0.7,0-1.1,0.5-1.1,1.2s0,1.4,0,2.2c-0.8,0-1.5,0-2.2,0c-0.8,0-1.2,0.4-1.2,1.1s0.5,1.1,1.2,1.1c0.7,0,1.4,0,2.2,0
		c0,0.8,0,1.6,0,2.3s0.5,1.2,1.2,1.1c0.6-0.1,1-0.5,1-1.2s0-1.5,0-2.2c0.8,0,1.5,0,2.2,0s1.2-0.5,1.2-1.1C24.2,4.2,23.8,3.8,23,3.7z
		"/>
	<path class="st0" d="M4.9,8.8c0,1.6,1.2,2.9,2.8,2.9s2.8-1.2,2.9-2.8C10.6,7.2,9.4,6,7.7,6C6.1,6,4.9,7.2,4.9,8.8z M9.2,8.9
		c0,0.8-0.6,1.5-1.5,1.5c-0.8,0-1.5-0.6-1.5-1.5c0-0.8,0.7-1.5,1.5-1.5C8.6,7.4,9.2,8,9.2,8.9z"/>
</g>
</svg>
