<?xml version="1.0" encoding="utf-8"?>
<!-- Generator: Adobe Illustrator 27.2.0, SVG Export Plug-In . SVG Version: 6.00 Build 0)  -->
<svg version="1.1" id="password" xmlns="http://www.w3.org/2000/svg" xmlns:xlink="http://www.w3.org/1999/xlink" x="0px" y="0px"
	 viewBox="0 0 14.9 15" style="enable-background:new 0 0 14.9 15;" xml:space="preserve">
<style type="text/css">
	.st0{fill:none;stroke:#212121;stroke-linecap:round;stroke-linejoin:round;}
	.st1{fill:#212121;}
</style>
<g>
	<path class="st0" d="M3,6.6h9c0.5,0,0.9,0.4,0.9,0.9v5.8c0,0.5-0.4,0.9-0.9,0.9H3c-0.5,0-1-0.4-1-0.9V7.5C2,7,2.4,6.6,3,6.6z"/>
	<path class="st0" d="M3.1,6.6V4.4c0-2.1,1.5-3.7,3.5-3.7h1.8c1.9,0,3.5,1.7,3.5,3.7v2.2"/>
</g>
<path class="st1" d="M8.5,9.6c0-0.6-0.4-1-1-1s-1,0.4-1,1c0,0.4,0.2,0.7,0.5,0.8l-0.5,2.2h2L8,10.5C8.3,10.3,8.5,10,8.5,9.6z"/>
</svg>
