<?xml version="1.0" encoding="UTF-8"?><svg xmlns="http://www.w3.org/2000/svg" viewBox="0 0 100 100"><defs><style>.cls-1{fill:#fdfdfd;}.cls-2{fill:#604fcd;}</style></defs><g id="color"><g><path class="cls-2" d="M34.79,34.25c-.32-.01-.59,.23-.6,.55-.01,.32,.23,.59,.55,.6s.59-.23,.6-.55-.23-.59-.55-.6Z"/><path class="cls-2" d="M38.3,34.41c-.32-.01-.59,.23-.6,.55-.01,.32,.23,.59,.55,.6s.59-.23,.6-.55c.01-.32-.23-.59-.55-.6Z"/><path class="cls-2" d="M41.8,34.9c-.32-.01-.59,.23-.6,.55-.01,.32,.23,.59,.55,.6,.32,.01,.59-.23,.6-.55,.01-.32-.23-.59-.55-.6Z"/><path class="cls-2" d="M45.83,36.4c.01-.32-.23-.59-.55-.6-.32-.01-.59,.23-.6,.55-.01,.32,.23,.59,.55,.6,.32,.01,.59-.23,.6-.55Z"/><path class="cls-2" d="M36.48,57.73l2.66,7.85s.01,.02,.02,.03c-.12-2.47-1.36-5.79-2.68-7.88Z"/><path class="cls-2" d="M34.15,72.41c.71,.15,1.44,.23,2.17,.23,1.88,0,3.74-.5,5.16-1.44,1.26-.83,2.06-1.92,2.3-3.15l-1.87-.37c-.18,.9-.9,1.54-1.48,1.92-1.54,1.01-3.85,1.38-5.88,.94-3.1-.67-4.94-2.8-4.48-5.17l-1.87-.37c-.66,3.4,1.84,6.51,5.95,7.41Z"/><polygon class="cls-2" points="30.38 63.45 33.75 64.75 39.18 65.83 34.32 64.03 36.38 57.63 30.38 63.45"/><path class="cls-2" d="M47.83,41.24c.05,0,.1,0,.16,0,1.78-.11,2.31-2.27,2.51-3.09,.3-1.24,.23-2.97-.64-3.85-.16-.16-.35-.31-.58-.46-.82-2.73-2.63-5.05-6.22-6.02-1.14-1.25-3.4-3.97-3.3-5.72,0,0-.98,1.67-1.17,3.71-2.77-5.05-9.55-3.13-9.55-3.13,1.25,.08,4.12,5.66,4.42,6.59-2.27-.34-4,1.08-4,1.08,1.93,.39,2.9,.86,3.39,1.22-.33,.18-.57,.49-.65,.87-.37,1.71-1.59,4.56-1.73,4.89-.15,.27-.15,.57-.01,.83,.3,.56,.96,.58,2.7,.64,1.36,.04,3.22,.1,5.58,.42,2.9,.39,4.98,1.01,6.5,1.46,1.16,.34,1.95,.58,2.61,.58Zm-14.64-3.86c-.44-.01-.88-.03-1.22-.05,.42-1,1.25-3.09,1.58-4.56,1.06-.24,4.2-.21,7.74,.26,3.85,.52,6.68,1.36,7.57,2.26,.34,.35,.55,1.41,.27,2.53-.44,1.77-.91,2-1.23,2.02-.45,.03-1.26-.21-2.28-.52-1.56-.46-3.7-1.1-6.71-1.5-2.42-.33-4.41-.39-5.72-.43Z"/><path class="cls-2" d="M87.88,58.36c-2.22-1.94-4.71-3.47-7.29-4.85,.44-1.81,1.96-8.49,1.37-11.53-1.93-10.04-9.48-16.32-15.71-19.89,.13-.73,.13-2.43-2.39-3.33-1.67-.6-2.79,.02-3.37,.51-5.58-2.31-10.66-3.29-13.04-3.35-6.47-.16-16.54,2.38-19.59,4.94-2.92,2.45-5.97,11.39-6.5,13-.63,.85-2.75,3.83-3.03,5.24-.38,1.92,.58,3.96,2.28,4.97-.49,1.98-.84,4.01-1.08,6.03-.25,.48-.52,.99-.78,1.49-2.65,5.04-4.17,11.05-2.49,16.65,2.4,7.14,10.93,12.28,17.82,14.28,6.72,1.95,13.98,2.16,20.76,.38,1.35-.35,2.67-.77,3.96-1.28-1.71,.28-3.4,.56-5.11,.75-3.71,.43-7.48,.59-11.2,.23-7.95-.8-16.01-3.99-21.43-9.98-1.28-1.46-2.41-3.08-2.98-4.92-.18-.62-.32-1.25-.43-1.89-.61-3.75,.21-7.58,1.66-11.07,.02,.83,.07,1.67,.17,2.5,.23-1.13,.7-3.4,.95-4.52,.94-4.46,2.16-8.84,3.63-13.14h0c2.53-1.66,4.82-1.93,4.68-1.93-5.02,0-7.57,1.69-8.55,2.56-.02-.24-.01-.49,.03-.73,.16-.79,1.72-3.16,2.78-4.6l.09-.12,.05-.15c.91-2.78,3.75-10.41,5.96-12.27,2.73-2.29,12.31-4.65,18.32-4.5,2.93,.07,10.22,1.66,17.34,5.59,1.06,.59,2.17,1.26,3.29,2.02,.48,.84,1.06,2.12,1.51,3.9,.82,3.24,1.35,8.84-.61,17.29-5.17-2.67-11.45-4.6-16.94-5.18,5.56,1.83,11.05,3.97,16.12,6.87-.19,1.51-.26,5.28,2.98,8.65,0,0-.79,6.13-.28,6.16,.96,.06,3.29-4.7,4.04-10.13,.42,.2,.95,.47,1.26,.63,.53,.27,1.07,.54,1.6,.82,.88,.69,1.75,1.6,2.36,2.78,1.08,2.08,1.13,4.59,.16,7.46-2.21,6.56-6.36,7.3-8.39,7.24,.92-2.26,1.43-4.72,1.5-7.11,.04-1,.02-1.99-.09-2.98-.59,1.9-1.07,3.78-1.69,5.6-1.89,5.84-4.54,10.05-9.6,13.62,4.18-.98,7.25-3.89,9.14-7.53,.27,.03,.58,.05,.94,.05,.76,0,1.71-.1,2.73-.42,2.02-.64,4.69-2.3,6.5-6.57,.13,.02,.25,.04,.38,.06,1.73,.24,3.46,.33,5.2,0,1.98-.35,3.95-1.67,3.77-3.95-.2-1.83-1.51-3.2-2.76-4.36Zm-9.03-5.75c-.59-.3-1.19-.59-1.78-.88-.4-.19-1.2-.56-1.61-.74-1.6-1.42-3.59-2.76-5.82-3.97,2.06-8.76,1.5-14.57,.63-17.93-.27-1.07-.59-1.96-.91-2.7,4.74,3.53,9.34,8.7,10.73,15.95,.43,2.25-.61,7.55-1.24,10.27Z"/><path class="cls-2" d="M75.05,64.97l-.53,.24s.18,.05,.44,.06h0s0,0,0,0c0,0-.84,1.91,.63,2.24,1.47,.33,2.07-.89,2.07-.89,0,0-.58,.55-1.15,.4-.31-.08-.54-.13-.68-.26,1.1-.23,1.88-2.02,2.13-3.53,.18-1.08,.47-2.01,.44-2.72,.84,.16,.95,1.93,.95,1.93,0,0,.81-2.3-1.11-3.02-.66-.25-1.14-.13-1.49,.12-.34,.22-.64,.62-.8,1.19-.19-.07-.33-.11-.33-.11l.28,.33s.98,1.11,.75,2.34c-.23,1.24-1.59,1.68-1.59,1.68Z"/><path class="cls-2" d="M59.19,33.87c-.06,.32-.21,.6-.44,.83-.11,.11-.16,.16-.27,.26,.2,.04,.3,.06,.5,.09,.97,.19,1.44,.3,2.37,.54,.19,.05,.29,.07,.48,.13-.06-.15-.09-.22-.15-.36-.13-.31-.17-.65-.12-.96,.16-.94,.24-1.4,.39-2.34,1.09,.31,1.56,1.26,1.56,1.26,.1-.64,.15-.97,.24-1.6-.79-.31-1.38-.19-1.74-.02,.11-.68,.17-1.01,.28-1.69,.7,.19,1.04,.29,1.7,.51-.37,.12-.56,.33-.56,.33,1.28,.23,1.83,1.41,1.83,1.41,.06-.5,.09-.75,.15-1.24,.02-.14,.02-.2,.04-.34,.02-.15,.03-.23,.04-.38,.04-.31,.15-.57,.32-.76,.08-.09,.12-.13,.2-.22-1.97-.89-4.05-1.46-6.15-1.95,.06,.15,.09,.22,.14,.36,.12,.31,.16,.65,.09,.98-.2,1.05-.3,1.56-.48,2.59-.26-.21-.55-.26-.55-.26,.43,.5,.33,1.48,.27,1.84-.07,.4-.11,.6-.18,1.01Z"/><path class="cls-2" d="M66.18,33.15c-.22-.25-.47-.34-.47-.34,.37,.55,.32,1.5,.28,1.88-.05,.42-.08,.63-.14,1.06-.05,.31-.18,.59-.38,.8-.09,.1-.14,.15-.24,.24,1.2,.43,1.79,.66,2.91,1.13-.06-.16-.08-.23-.14-.39-.12-.33-.16-.67-.13-.99,.05-.42,.07-.64,.11-1.05,.04-.37,.18-1.27,.57-1.47,0,0-.21-.1-.45-.05,.07-1,.1-1.49,.13-2.44,.01-.29,.09-.53,.21-.69,.06-.08,.09-.11,.14-.19-.88-.55-1.37-.81-2.42-1.29,.06,.15,.08,.22,.14,.36,.12,.31,.17,.63,.14,.93-.09,.98-.14,1.48-.26,2.49Z"/><path class="cls-2" d="M57.84,40.17c-.05,.23-.16,.43-.32,.59-.08,.08-.12,.12-.19,.19,.67,.14,1.01,.22,1.67,.39,.12,.03,.18,.05,.29,.08,.12,.03,.18,.05,.29,.08,.19-.83,.27-1.24,.44-2.06,.27,.93,.4,1.41,.64,2.37,2.1,.66,4.17,1.41,6.24,2.19,.13,.05,.19,.07,.31,.12-.04-.11-.05-.17-.09-.28-.08-.24-.09-.49-.04-.72,.02-.11,.03-.17,.06-.28,.02-.1,.03-.15,.05-.26,.07-.37,.11-.56,.17-.93,0,0-.62,.49-1.47,.04,0,0,.06,.23,.27,.49-.46-.18-.7-.26-1.16-.44,.1-.47,.15-.7,.24-1.17,.65,.31,.92,.96,.92,.96,.09-.47,.14-.71,.22-1.18-.46-.22-.82-.21-1.07-.14,.09-.46,.13-.69,.21-1.15,.46,.17,.69,.26,1.14,.43-.26,.08-.39,.23-.39,.23,.88,.21,1.25,1.09,1.25,1.09,.06-.37,.09-.55,.15-.92,.02-.1,.02-.15,.04-.25,.02-.11,.02-.17,.04-.28,.03-.23,.12-.43,.26-.57,.06-.07,.09-.1,.15-.17-1.23-.52-2.48-.97-3.73-1.42-.38,.68-.58,1.02-.98,1.7,.65,.22,.97,.33,1.61,.56-1.1,.79-2.2,1.57-3.31,2.35,.6-.98,.9-1.47,1.46-2.43-.65-.22-.99-.32-1.65-.52,.52-.87,.78-1.31,1.27-2.17-.52-.16-.78-.23-1.31-.37-.14,.78-.21,1.18-.37,1.97-.28-.91-.43-1.36-.73-2.25-.01,0-.02,0-.03,0-.12-.03-.18-.04-.3-.07-.68-.16-1.02-.23-1.71-.36,.05,.1,.07,.14,.11,.24,.1,.2,.13,.43,.09,.65-.13,.72-.2,1.08-.33,1.81-.18-.15-.38-.19-.38-.19,.29,.35,.21,1.03,.16,1.3-.06,.3-.09,.45-.15,.76Z"/><path class="cls-2" d="M24.91,58.67c-1.03-.35-1.85-.96-2.73-1.62,.23,1.71,2.02,2.72,3.63,2.85,2.12,.23,4.28-.99,5.2-2.91,.37-.74,.77-2.54,1.02-3.35,.19-.71,.7-2.59,.89-3.28,.09-.35,.24-.82,.27-1.18,.24-1.7-.43-3.47-1.71-4.61-2.69-2.42-7.09-1.4-8.31,2.02-.26,.74-.37,1.51-.5,2.27-.11,.76-.18,1.52-.16,2.29,.24-.7,.86-2.54,1.1-3.21,0,0,.19-.53,.19-.53,.29-.81,.78-1.55,1.42-2.1,2.16-1.87,5.62-.91,6.54,1.77,.23,.64,.29,1.34,.19,2.01-.02-.04-.03-.07-.05-.11-.38-.67-1-1.14-1.75-1.34-.74-.2-1.52-.1-2.19,.29-.67,.38-1.14,1-1.34,1.75l-1.03,3.83c-.2,.74-.1,1.52,.29,2.19,.38,.67,1,1.14,1.75,1.34,.16,.04,.32,.07,.48,.09,.61,.06,1.2-.08,1.71-.37-.94,1.66-2.94,2.54-4.87,1.92Z"/><path class="cls-2" d="M57.97,49.34c-2.89-2.48-7.6-1.46-8.89,2.03-.27,.75-.39,1.54-.53,2.31-.12,.77-.2,1.55-.18,2.33,.26-.71,.93-2.58,1.18-3.27l.2-.54c.3-.82,.83-1.58,1.51-2.14,2.3-1.89,6.01-.9,7.02,1.83,.25,.66,.32,1.37,.21,2.05-.02-.04-.04-.07-.06-.11-.41-.68-1.08-1.17-1.88-1.38-.8-.21-1.63-.11-2.34,.28s-1.22,1.02-1.43,1.78l-1.09,3.9c-.21,.76-.1,1.55,.32,2.23,.41,.68,1.08,1.17,1.88,1.38,.17,.04,.34,.07,.51,.09,.65,.06,1.29-.08,1.83-.37-1,1.69-3.14,2.58-5.21,1.94-1.1-.36-1.99-.99-2.93-1.67,.26,1.75,2.18,2.79,3.9,2.93,2.27,.24,4.58-.99,5.55-2.95,.39-.75,.81-2.59,1.07-3.41,.2-.73,.74-2.63,.93-3.34,.09-.36,.25-.84,.28-1.2,.25-1.73-.48-3.55-1.86-4.71Z"/><path class="cls-2" d="M50,1.9C23.44,1.9,1.9,23.44,1.9,50s21.54,48.1,48.1,48.1,48.1-21.54,48.1-48.1S76.56,1.9,50,1.9Zm37.35,66.05c-1.53,.29-3.16,.31-5.11,.07-2.01,4.13-4.83,5.78-6.9,6.44-1.08,.34-2.22,.5-3.37,.47-2.09,3.66-5.1,6.16-8.74,7.26-2.81,1.32-6.17,2.17-10,2.53-2.61,.54-5.29,.8-7.98,.8-3.88,0-7.79-.55-11.58-1.66-3.9-1.13-7.82-3.06-11.04-5.43-3.86-2.84-6.52-6.2-7.7-9.71,0-.01,0-.02-.01-.04-2.01-6.68,.3-13.29,2.59-17.65,.16-.32,.33-.64,.5-.96,.06-.12,.12-.24,.19-.35,.22-1.82,.52-3.57,.89-5.2-1.68-1.39-2.53-3.63-2.11-5.75,.3-1.5,2.05-4.09,3.14-5.6,.91-2.74,3.83-10.9,6.85-13.44,3.3-2.78,13.66-5.43,20.52-5.26,2.64,.07,7.6,1.09,12.94,3.21,.85-.51,2.19-.92,3.95-.29,2.63,.94,3.19,2.67,3.24,3.81,6.24,3.71,13.78,10.19,15.76,20.46,.55,2.86-.51,8.27-1.18,11.22,2.74,1.52,4.9,2.99,6.74,4.59,.01,0,.02,.02,.03,.03,1.39,1.3,2.9,2.88,3.15,5.14,0,.01,0,.02,0,.04,.24,3-2.23,4.8-4.78,5.26Z"/></g></g><g id="no_color"><g><path class="cls-1" d="M47.9,39.84c.32-.02,.8-.25,1.23-2.02,.27-1.12,.07-2.18-.27-2.53-.89-.9-3.72-1.74-7.57-2.26-3.54-.47-6.68-.5-7.74-.26-.32,1.47-1.16,3.56-1.58,4.56,.34,.02,.78,.04,1.22,.05,1.31,.04,3.29,.11,5.72,.43,3.01,.4,5.15,1.04,6.71,1.5,1.03,.3,1.84,.54,2.28,.52Zm-13.16-4.43c-.32-.01-.57-.28-.55-.6,.01-.32,.28-.57,.6-.55,.32,.01,.57,.28,.55,.6-.01,.32-.28,.57-.6,.55Zm3.51,.15c-.32-.01-.57-.28-.55-.6,.01-.32,.28-.57,.6-.55,.32,.01,.57,.28,.55,.6-.01,.32-.28,.57-.6,.55Zm3.5,.49c-.32-.01-.57-.28-.55-.6,.01-.32,.28-.57,.6-.55,.32,.01,.57,.28,.55,.6-.01,.32-.28,.57-.6,.55Zm2.93,.29c.01-.32,.28-.57,.6-.55,.32,.01,.57,.28,.55,.6-.01,.32-.28,.57-.6,.55-.32-.01-.57-.28-.55-.6Z"/><path class="cls-1" d="M69.36,26.4c.32,.73,.64,1.63,.91,2.7,.86,3.36,1.43,9.16-.63,17.93,2.23,1.2,4.22,2.54,5.82,3.97,.4,.18,1.21,.55,1.61,.74,.6,.29,1.19,.59,1.78,.88,.64-2.72,1.68-8.02,1.24-10.27-1.39-7.25-5.99-12.42-10.73-15.95Z"/><path class="cls-1" d="M87.35,67.95c2.55-.46,5.01-2.26,4.78-5.26,0-.01,0-.02,0-.04-.25-2.26-1.76-3.84-3.15-5.14-.01,0-.02-.02-.03-.03-1.84-1.6-4-3.08-6.74-4.59,.67-2.94,1.73-8.35,1.18-11.22-1.98-10.28-9.52-16.75-15.76-20.46-.05-1.14-.61-2.87-3.24-3.81-1.77-.63-3.1-.22-3.95,.29-5.33-2.13-10.3-3.15-12.94-3.21-6.87-.17-17.22,2.48-20.52,5.26-3.02,2.54-5.93,10.71-6.85,13.44-1.1,1.51-2.85,4.1-3.14,5.6-.42,2.11,.43,4.36,2.11,5.75-.37,1.64-.67,3.38-.89,5.2-.06,.12-.12,.23-.19,.35-.16,.31-.33,.63-.5,.96-2.29,4.36-4.6,10.97-2.59,17.65,0,.01,0,.02,.01,.04,1.18,3.51,3.84,6.87,7.7,9.71,3.22,2.37,7.14,4.3,11.04,5.43,3.79,1.1,7.7,1.66,11.58,1.66,2.69,0,5.37-.27,7.98-.8,3.82-.36,7.18-1.21,10-2.53,3.64-1.1,6.65-3.6,8.74-7.26,1.15,.03,2.29-.13,3.37-.47,2.07-.66,4.9-2.31,6.9-6.44,1.95,.24,3.59,.21,5.11-.07Zm-27.53-13.9c-.03,.36-.19,.85-.28,1.2-.19,.7-.73,2.61-.93,3.34-.26,.82-.68,2.66-1.07,3.41-.98,1.96-3.29,3.19-5.55,2.95-1.72-.14-3.65-1.18-3.9-2.93,.94,.68,1.83,1.31,2.93,1.67,2.07,.64,4.21-.25,5.21-1.94-.54,.3-1.18,.44-1.83,.37-.17-.02-.34-.05-.51-.09-.8-.21-1.46-.7-1.88-1.38-.41-.68-.53-1.47-.32-2.23l1.09-3.9c.21-.76,.72-1.39,1.43-1.78,.71-.39,1.54-.49,2.34-.28,.8,.21,1.46,.7,1.88,1.38,.02,.04,.04,.07,.06,.11,.11-.69,.04-1.4-.21-2.05-1.01-2.74-4.72-3.73-7.02-1.83-.68,.56-1.2,1.32-1.51,2.14l-.2,.54c-.25,.69-.93,2.55-1.18,3.27-.01-.78,.07-1.56,.18-2.33,.13-.78,.26-1.57,.53-2.31,1.29-3.49,6-4.51,8.89-2.03,1.37,1.16,2.11,2.98,1.86,4.71Zm-31.74,3.07c-.16-.02-.32-.04-.48-.09-.74-.2-1.36-.68-1.75-1.34-.38-.67-.49-1.44-.29-2.19l1.03-3.83c.2-.74,.68-1.36,1.34-1.75,.67-.38,1.44-.48,2.19-.29,.74,.2,1.36,.68,1.75,1.34,.02,.03,.04,.07,.05,.11,.11-.67,.05-1.37-.19-2.01-.93-2.68-4.38-3.63-6.54-1.77-.64,.55-1.13,1.3-1.42,2.1,0,0-.19,.53-.19,.53-.24,.67-.86,2.51-1.1,3.21-.02-.77,.05-1.53,.16-2.29,.12-.77,.24-1.54,.5-2.27,1.22-3.42,5.62-4.44,8.31-2.02,1.28,1.14,1.95,2.91,1.71,4.61-.03,.36-.18,.83-.27,1.18-.18,.69-.69,2.56-.89,3.28-.25,.81-.65,2.61-1.02,3.35-.92,1.92-3.08,3.14-5.2,2.91-1.61-.13-3.4-1.14-3.63-2.85,.88,.66,1.7,1.27,2.73,1.62,1.93,.62,3.93-.26,4.87-1.92-.51,.29-1.1,.43-1.71,.37Zm11.1,8.7l-5.43-1.08-3.37-1.3,6-5.82-2.06,6.4,4.86,1.8Zm-2.7-8.1c1.32,2.08,2.55,5.41,2.68,7.88,0,0-.01-.02-.02-.03l-2.66-7.85Zm-8.29,7.27l1.87,.37c-.46,2.37,1.38,4.5,4.48,5.17,2.03,.44,4.34,.07,5.88-.94,.58-.38,1.3-1.02,1.48-1.92l1.87,.37c-.24,1.23-1.04,2.32-2.3,3.15-1.42,.94-3.28,1.44-5.16,1.44-.73,0-1.46-.08-2.17-.23-4.11-.89-6.61-4.01-5.95-7.41Zm10.52-25.79c-2.35-.32-4.22-.38-5.58-.42-1.74-.06-2.4-.08-2.7-.64-.14-.26-.13-.55,.01-.83,.14-.33,1.37-3.18,1.73-4.89,.08-.38,.32-.69,.65-.87-.49-.36-1.46-.83-3.39-1.22,0,0,1.72-1.42,4-1.08-.3-.93-3.17-6.51-4.42-6.59,0,0,6.78-1.92,9.55,3.13,.19-2.04,1.17-3.71,1.17-3.71-.1,1.75,2.15,4.46,3.3,5.72,3.6,.97,5.41,3.29,6.22,6.02,.22,.15,.42,.3,.58,.46,.87,.88,.95,2.61,.64,3.85-.2,.82-.73,2.98-2.51,3.09-.05,0-.1,0-.16,0-.66,0-1.45-.24-2.61-.58-1.52-.45-3.6-1.07-6.5-1.46Zm42.95,27.47c-.13-.02-.25-.04-.38-.06-1.81,4.27-4.49,5.93-6.5,6.57-1.02,.32-1.97,.42-2.73,.42-.36,0-.68-.02-.94-.05-1.89,3.63-4.96,6.55-9.14,7.53,5.07-3.57,7.72-7.78,9.6-13.62,.61-1.82,1.1-3.69,1.69-5.6,.11,.99,.12,1.99,.09,2.98-.07,2.39-.58,4.85-1.5,7.11,2.03,.06,6.17-.68,8.39-7.24,.97-2.87,.91-5.38-.16-7.46-.61-1.18-1.48-2.09-2.36-2.78-.53-.28-1.06-.55-1.6-.82-.3-.15-.84-.42-1.26-.63-.75,5.43-3.08,10.19-4.04,10.13-.51-.03,.28-6.16,.28-6.16-3.24-3.37-3.17-7.14-2.98-8.65-5.07-2.91-10.56-5.05-16.12-6.87,5.49,.58,11.77,2.51,16.94,5.18,1.96-8.46,1.43-14.05,.61-17.29-.45-1.79-1.03-3.06-1.51-3.9-1.12-.76-2.23-1.43-3.29-2.02-7.12-3.94-14.41-5.52-17.34-5.59-6.01-.15-15.59,2.2-18.32,4.5-2.21,1.86-5.05,9.49-5.96,12.27l-.05,.15-.09,.12c-1.06,1.44-2.63,3.81-2.78,4.6-.05,.24-.06,.49-.03,.73,.98-.87,3.53-2.57,8.55-2.56,.14,0-2.15,.27-4.68,1.92h0c-1.47,4.31-2.69,8.69-3.63,13.15-.25,1.12-.72,3.39-.95,4.52-.1-.83-.15-1.66-.17-2.5-1.45,3.48-2.27,7.32-1.66,11.07,.1,.63,.24,1.27,.43,1.89,.57,1.84,1.7,3.46,2.98,4.92,5.42,5.99,13.49,9.19,21.43,9.98,3.72,.36,7.49,.2,11.2-.23,1.71-.19,3.4-.47,5.11-.75-1.29,.51-2.61,.94-3.96,1.28-6.78,1.77-14.04,1.57-20.76-.38-6.89-2-15.42-7.14-17.82-14.28-1.68-5.6-.15-11.61,2.49-16.65,.26-.5,.53-1.01,.78-1.49,.24-2.02,.58-4.06,1.08-6.03-1.69-1.01-2.66-3.05-2.28-4.97,.28-1.41,2.4-4.39,3.03-5.24,.53-1.6,3.58-10.54,6.5-13,3.05-2.56,13.12-5.11,19.59-4.94,2.38,.06,7.46,1.05,13.04,3.35,.58-.5,1.7-1.11,3.37-.51,2.52,.9,2.52,2.6,2.39,3.33,6.23,3.57,13.78,9.85,15.71,19.89,.59,3.04-.94,9.73-1.37,11.53,2.58,1.38,5.06,2.91,7.29,4.85,1.25,1.16,2.56,2.53,2.76,4.36,.18,2.28-1.79,3.6-3.77,3.95-1.74,.33-3.47,.24-5.2,0Zm-5.78-5.73l-.28-.33s.14,.04,.33,.11c.16-.57,.46-.97,.8-1.19,.35-.25,.84-.37,1.49-.12,1.91,.72,1.11,3.02,1.11,3.02,0,0-.11-1.77-.95-1.93,.03,.7-.26,1.63-.44,2.72-.25,1.51-1.03,3.3-2.13,3.53,.13,.13,.37,.17,.68,.26,.57,.15,1.15-.4,1.15-.4,0,0-.6,1.23-2.07,.89-1.47-.33-.63-2.24-.63-2.24h0c-.26-.01-.44-.06-.44-.06l.53-.24s1.36-.44,1.59-1.68c.23-1.24-.75-2.34-.75-2.34Zm-18.07-22.84s.2,.04,.38,.19c.14-.73,.2-1.09,.33-1.81,.04-.22,0-.44-.09-.65-.05-.1-.07-.14-.11-.24,.69,.13,1.04,.2,1.71,.36,.12,.03,.18,.04,.3,.07,.01,0,.02,0,.03,0,.3,.88,.45,1.33,.73,2.25,.15-.79,.23-1.18,.37-1.97,.53,.14,.79,.22,1.31,.37-.5,.86-.75,1.3-1.27,2.17,.67,.2,1,.3,1.65,.52-.56,.96-.86,1.45-1.46,2.43,1.1-.78,2.21-1.55,3.31-2.35-.64-.23-.96-.34-1.61-.56,.4-.68,.6-1.02,.98-1.7,1.26,.45,2.5,.9,3.73,1.42-.06,.07-.09,.1-.15,.17-.13,.14-.22,.35-.26,.57-.02,.11-.02,.17-.04,.28-.02,.1-.02,.15-.04,.25-.06,.37-.09,.55-.15,.92,0,0-.37-.88-1.25-1.09,0,0,.13-.15,.39-.23-.45-.18-.68-.26-1.14-.43-.08,.46-.12,.69-.21,1.15,.25-.07,.61-.08,1.07,.14-.08,.47-.13,.71-.22,1.18,0,0-.27-.65-.92-.96-.09,.47-.14,.7-.24,1.17,.47,.17,.7,.26,1.16,.44-.2-.26-.27-.49-.27-.49,.85,.45,1.47-.04,1.47-.04-.07,.37-.1,.56-.17,.93-.02,.1-.03,.15-.05,.26-.02,.11-.03,.17-.06,.28-.05,.23-.03,.48,.04,.72,.04,.11,.05,.17,.09,.28-.13-.05-.19-.07-.31-.12-2.06-.78-4.13-1.52-6.24-2.19-.24-.96-.37-1.44-.64-2.37-.17,.82-.25,1.23-.44,2.06-.12-.03-.18-.05-.29-.08-.12-.03-.18-.05-.29-.08-.66-.17-.99-.25-1.67-.39,.08-.08,.12-.12,.19-.19,.16-.16,.28-.37,.32-.59,.06-.3,.09-.46,.15-.76,.05-.27,.13-.95-.16-1.3Zm1.27-7.09s.29,.05,.55,.26c.18-1.02,.28-1.54,.48-2.59,.06-.33,.03-.67-.09-.98-.06-.15-.09-.22-.14-.36,2.1,.49,4.18,1.05,6.15,1.95-.08,.09-.12,.13-.2,.22-.17,.19-.29,.45-.32,.76-.02,.15-.03,.22-.04,.38-.02,.14-.02,.2-.04,.34-.06,.49-.09,.74-.15,1.24,0,0-.55-1.18-1.83-1.41,0,0,.19-.21,.56-.33-.66-.22-1-.32-1.7-.51-.11,.68-.17,1.02-.28,1.69,.36-.17,.95-.29,1.74,.02-.1,.64-.14,.96-.24,1.6,0,0-.47-.95-1.56-1.26-.16,.93-.23,1.4-.39,2.34-.05,.32-.01,.65,.12,.96,.06,.14,.09,.22,.15,.36-.19-.05-.29-.08-.48-.13-.93-.24-1.41-.35-2.37-.54-.2-.04-.3-.06-.5-.09,.11-.11,.16-.16,.27-.26,.23-.23,.38-.52,.44-.83,.07-.4,.11-.6,.18-1.01,.06-.36,.16-1.34-.27-1.84Zm7.21-1.29c-.06-.15-.08-.22-.14-.36,1.05,.48,1.54,.74,2.42,1.29-.05,.07-.08,.11-.14,.19-.12,.16-.2,.4-.21,.69-.03,.95-.06,1.44-.13,2.44,.23-.05,.45,.05,.45,.05-.39,.21-.53,1.1-.57,1.47-.04,.42-.06,.63-.11,1.05-.03,.32,.01,.66,.13,.99,.06,.15,.08,.23,.14,.39-1.12-.47-1.7-.7-2.91-1.13,.1-.1,.14-.15,.24-.24,.2-.21,.33-.48,.38-.8,.06-.43,.09-.64,.14-1.06,.04-.38,.09-1.33-.28-1.88,0,0,.24,.09,.47,.34,.12-1.01,.17-1.51,.26-2.49,.03-.3-.03-.62-.14-.93Z"/></g></g></svg>