<?xml version="1.0" encoding="utf-8"?>
<!-- Generator: Adobe Illustrator 26.5.3, SVG Export Plug-In . SVG Version: 6.00 Build 0)  -->
<svg version="1.1" id="sun_hover" xmlns="http://www.w3.org/2000/svg" xmlns:xlink="http://www.w3.org/1999/xlink" x="0px" y="0px"
	 viewBox="0 0 24.5 24.5" style="enable-background:new 0 0 24.5 24.5;" xml:space="preserve">
<style type="text/css">
	.st0{fill:#5865F2;}
</style>
<g>
	<g>
		<path class="st0" d="M16.9,19.5c0.7-0.3,1.4-0.7,2.1-1c-0.2-0.2-0.4-0.3-0.5-0.4c0,0-0.1,0-0.2,0c-1,0.4-2.1,0.8-3.2,1
			c-0.7,0.1-1.4,0.2-2.1,0.3c-2.4,0.2-4.7-0.3-6.9-1.3c-0.1,0-0.2,0-0.3,0c-0.1,0.1-0.2,0.2-0.4,0.3c0,0,0,0,0,0.1
			c0.6,0.4,1.3,0.7,2,1c0,0,0,0.1,0,0.1c-0.4,0.6-0.8,1.2-1.1,1.9c-0.1,0.1-0.1,0.1-0.3,0.1c-2.1-0.7-4.1-1.7-5.9-3
			c-0.1,0-0.1-0.1-0.1-0.2C0,17.5,0,16.6,0,15.8c0-2.3,0.5-4.4,1.3-6.5c0.6-1.6,1.4-3.1,2.4-4.6c0.1-0.1,0.2-0.2,0.3-0.3
			C5.4,3.8,7,3.3,8.7,3c0.1,0,0.1,0,0.2,0.1c0.2,0.3,0.3,0.7,0.5,1c0.1,0.1,0.1,0.2,0.3,0.2C10.8,4.1,12,4,13.2,4.1
			c0.6,0,1.2,0.1,1.7,0.2c0.1,0,0.2-0.1,0.2-0.1c0.2-0.3,0.3-0.7,0.5-1C15.7,3,15.7,3,15.9,3c1.6,0.3,3.2,0.8,4.7,1.5
			c0.1,0,0.2,0.1,0.2,0.2c1.6,2.3,2.7,4.9,3.3,7.6c0.2,0.8,0.3,1.7,0.3,2.6c0.1,0.9,0,1.7,0,2.6c0,0.3,0,0.6-0.1,0.9
			c0,0.1-0.1,0.1-0.1,0.2c-1.8,1.3-3.8,2.3-6,3c-0.1,0-0.2,0-0.2,0C17.7,20.8,17.3,20.1,16.9,19.5C16.9,19.5,16.9,19.5,16.9,19.5z
			 M8.2,15.7c0.4,0,0.7-0.1,1-0.3c1.4-0.8,1.6-2.9,0.5-4c-0.8-0.9-2-0.9-2.9-0.1c-0.8,0.7-1.1,2.2-0.5,3.2
			C6.7,15.2,7.3,15.6,8.2,15.7z M18.6,13.4c0-0.7-0.1-1.2-0.4-1.6c-0.7-1.2-2.2-1.5-3.2-0.6c-1.1,0.9-1.2,2.6-0.2,3.7
			c0.8,0.9,2,1,2.9,0.3C18.3,14.7,18.6,14,18.6,13.4z"/>
	</g>
</g>
</svg>
