<?xml version="1.0" encoding="utf-8"?>
<!-- Generator: Adobe Illustrator 26.5.3, SVG Export Plug-In . SVG Version: 6.00 Build 0)  -->
<svg version="1.1" id="sun_hover" xmlns="http://www.w3.org/2000/svg" xmlns:xlink="http://www.w3.org/1999/xlink" x="0px" y="0px"
	 viewBox="0 0 24.5 24.5" style="enable-background:new 0 0 24.5 24.5;" xml:space="preserve">
<style type="text/css">
	.st0{fill:#34A853;}
	.st1{fill:#FBBC05;}
	.st2{fill:#EA4335;}
	.st3{fill:#4285F4;}
</style>
<g>
	<path class="st0" d="M16.5,18.3c-1,0.6-2.3,1-4.1,1c-3.1,0-5.7-2-6.7-4.8l-4.1,3.2c2,3.9,5.9,6.6,10.6,6.6c3,0,5.7-1.1,7.8-2.9
		L16.5,18.3z"/>
	<path class="st1" d="M5.7,14.5c-0.3-0.8-0.4-1.6-0.4-2.4c0-0.8,0.1-1.6,0.4-2.3c0,0,0,0,0,0l-4.1-3c-0.8,1.6-1.3,3.5-1.3,5.5
		c0,2,0.5,3.9,1.3,5.5L5.7,14.5z"/>
	<path class="st2" d="M5.7,9.8C6.7,7,9.3,5,12.5,5c1.7,0,3.2,0.6,4.4,1.6c0,0,2.2-2.2,3.5-3.5c-2-1.8-4.8-2.9-8.2-2.9
		c-4.6,0-8.6,2.7-10.6,6.5L5.7,9.8z"/>
</g>
<path class="st3" d="M24,10.2c0-0.1,0-0.1,0-0.2h-0.2H19h-6.5v4.6H19c-0.3,1.6-1.1,2.9-2.5,3.7h0l3.5,3c2.5-2.2,4.2-5.5,4.2-9.2
	C24.2,11.6,24.1,10.9,24,10.2z"/>
</svg>
