<?xml version="1.0" encoding="utf-8"?>
<!-- Generator: Adobe Illustrator 26.5.3, SVG Export Plug-In . SVG Version: 6.00 Build 0)  -->
<svg version="1.1" id="Capa_1" xmlns="http://www.w3.org/2000/svg" xmlns:xlink="http://www.w3.org/1999/xlink" x="0px" y="0px"
	 viewBox="0 0 96.2 96.2" style="enable-background:new 0 0 96.2 96.2;" xml:space="preserve">
<style type="text/css">
	.st0{fill:#FDFDFD;}
	.st1{fill:#EAEAEA;}
</style>
<g>
	<g id="no_color">
		<g>
			<path class="st0" d="M42.8,37.9c0.3,0,0.8-0.2,1.2-2c0.3-1.1,0.1-2.2-0.3-2.5c-0.9-0.9-3.7-1.7-7.6-2.3c-3.5-0.5-6.7-0.5-7.7-0.3
				c-0.3,1.5-1.2,3.6-1.6,4.6c0.3,0,0.8,0,1.2,0c1.3,0,3.3,0.1,5.7,0.4c3,0.4,5.2,1,6.7,1.5C41.6,37.7,42.4,38,42.8,37.9L42.8,37.9z
				 M29.7,33.5c-0.3,0-0.6-0.3-0.5-0.6c0-0.3,0.3-0.6,0.6-0.5c0.3,0,0.6,0.3,0.5,0.6C30.3,33.3,30,33.5,29.7,33.5z M33.2,33.7
				c-0.3,0-0.6-0.3-0.5-0.6c0-0.3,0.3-0.6,0.6-0.5c0.3,0,0.6,0.3,0.5,0.6C33.8,33.4,33.5,33.7,33.2,33.7z M36.7,34.2
				c-0.3,0-0.6-0.3-0.5-0.6c0-0.3,0.3-0.6,0.6-0.5c0.3,0,0.6,0.3,0.5,0.6C37.3,33.9,37,34.2,36.7,34.2z M39.6,34.4
				c0-0.3,0.3-0.6,0.6-0.5c0.3,0,0.6,0.3,0.5,0.6c0,0.3-0.3,0.6-0.6,0.5C39.9,35,39.6,34.8,39.6,34.4z"/>
			<path class="st0" d="M64.3,24.5c0.3,0.7,0.6,1.6,0.9,2.7c0.9,3.4,1.4,9.2-0.6,17.9c2.2,1.2,4.2,2.5,5.8,4
				c0.4,0.2,1.2,0.5,1.6,0.7c0.6,0.3,1.2,0.6,1.8,0.9c0.6-2.7,1.7-8,1.2-10.3C73.6,33.2,69,28,64.3,24.5z"/>
			<path class="st0" d="M82.3,66.1c2.6-0.5,5-2.3,4.8-5.3c0,0,0,0,0,0c-0.2-2.3-1.8-3.8-3.2-5.1c0,0,0,0,0,0c-1.8-1.6-4-3.1-6.7-4.6
				c0.7-2.9,1.7-8.4,1.2-11.2c-2-10.3-9.5-16.8-15.8-20.5c-0.1-1.1-0.6-2.9-3.2-3.8c-1.8-0.6-3.1-0.2-4,0.3
				c-5.3-2.1-10.3-3.2-12.9-3.2c-6.9-0.2-17.2,2.5-20.5,5.3c-3,2.5-5.9,10.7-6.8,13.4c-1.1,1.5-2.9,4.1-3.1,5.6
				c-0.4,2.1,0.4,4.4,2.1,5.8c-0.4,1.6-0.7,3.4-0.9,5.2C13.1,48,13,48.1,13,48.2c-0.2,0.3-0.3,0.6-0.5,1c-2.3,4.4-4.6,11-2.6,17.7
				c0,0,0,0,0,0c1.2,3.5,3.8,6.9,7.7,9.7c3.2,2.4,7.1,4.3,11,5.4c3.8,1.1,7.7,1.7,11.6,1.7c2.7,0,5.4-0.3,8-0.8
				c3.8-0.4,7.2-1.2,10-2.5c3.6-1.1,6.6-3.6,8.7-7.3c1.2,0,2.3-0.1,3.4-0.5c2.1-0.7,4.9-2.3,6.9-6.4C79.1,66.4,80.8,66.3,82.3,66.1
				L82.3,66.1z M54.8,52.2c0,0.4-0.2,0.8-0.3,1.2c-0.2,0.7-0.7,2.6-0.9,3.3c-0.3,0.8-0.7,2.7-1.1,3.4c-1,2-3.3,3.2-5.5,3
				c-1.7-0.1-3.7-1.2-3.9-2.9c0.9,0.7,1.8,1.3,2.9,1.7c2.1,0.6,4.2-0.2,5.2-1.9c-0.5,0.3-1.2,0.4-1.8,0.4c-0.2,0-0.3,0-0.5-0.1
				c-0.8-0.2-1.5-0.7-1.9-1.4c-0.4-0.7-0.5-1.5-0.3-2.2l1.1-3.9c0.2-0.8,0.7-1.4,1.4-1.8s1.5-0.5,2.3-0.3c0.8,0.2,1.5,0.7,1.9,1.4
				c0,0,0,0.1,0.1,0.1c0.1-0.7,0-1.4-0.2-2c-1-2.7-4.7-3.7-7-1.8c-0.7,0.6-1.2,1.3-1.5,2.1l-0.2,0.5c-0.2,0.7-0.9,2.5-1.2,3.3
				c0-0.8,0.1-1.6,0.2-2.3c0.1-0.8,0.3-1.6,0.5-2.3c1.3-3.5,6-4.5,8.9-2C54.3,48.6,55,50.4,54.8,52.2L54.8,52.2z M23,55.2
				c-0.2,0-0.3,0-0.5-0.1c-0.7-0.2-1.4-0.7-1.8-1.3c-0.4-0.7-0.5-1.4-0.3-2.2l1-3.8c0.2-0.7,0.7-1.4,1.3-1.8
				c0.7-0.4,1.4-0.5,2.2-0.3c0.7,0.2,1.4,0.7,1.8,1.3c0,0,0,0.1,0,0.1c0.1-0.7,0-1.4-0.2-2c-0.9-2.7-4.4-3.6-6.5-1.8
				c-0.6,0.5-1.1,1.3-1.4,2.1L18.5,46c-0.2,0.7-0.9,2.5-1.1,3.2c0-0.8,0-1.5,0.2-2.3c0.1-0.8,0.2-1.5,0.5-2.3c1.2-3.4,5.6-4.4,8.3-2
				c1.3,1.1,2,2.9,1.7,4.6c0,0.4-0.2,0.8-0.3,1.2c-0.2,0.7-0.7,2.6-0.9,3.3c-0.2,0.8-0.6,2.6-1,3.3C25,57,22.8,58.2,20.7,58
				c-1.6-0.1-3.4-1.1-3.6-2.8c0.9,0.7,1.7,1.3,2.7,1.6c1.9,0.6,3.9-0.3,4.9-1.9C24.2,55.1,23.6,55.3,23,55.2L23,55.2z M34.1,63.9
				l-5.4-1.1l-3.4-1.3l6-5.8l-2.1,6.4L34.1,63.9z M31.4,55.8c1.3,2.1,2.6,5.4,2.7,7.9c0,0,0,0,0,0C34.1,63.7,31.4,55.8,31.4,55.8z
				 M23.1,63.1l1.9,0.4c-0.5,2.4,1.4,4.5,4.5,5.2c2,0.4,4.3,0.1,5.9-0.9c0.6-0.4,1.3-1,1.5-1.9l1.9,0.4c-0.2,1.2-1,2.3-2.3,3.2
				c-1.4,0.9-3.3,1.4-5.2,1.4c-0.7,0-1.5-0.1-2.2-0.2C25,69.6,22.5,66.5,23.1,63.1z M33.7,37.3c-2.4-0.3-4.2-0.4-5.6-0.4
				c-1.7-0.1-2.4-0.1-2.7-0.6c-0.1-0.3-0.1-0.5,0-0.8c0.1-0.3,1.4-3.2,1.7-4.9c0.1-0.4,0.3-0.7,0.6-0.9c-0.5-0.4-1.5-0.8-3.4-1.2
				c0,0,1.7-1.4,4-1.1c-0.3-0.9-3.2-6.5-4.4-6.6c0,0,6.8-1.9,9.6,3.1c0.2-2,1.2-3.7,1.2-3.7c-0.1,1.8,2.2,4.5,3.3,5.7
				c3.6,1,5.4,3.3,6.2,6c0.2,0.1,0.4,0.3,0.6,0.5c0.9,0.9,1,2.6,0.6,3.8c-0.2,0.8-0.7,3-2.5,3.1c0,0-0.1,0-0.2,0
				c-0.7,0-1.5-0.2-2.6-0.6C38.6,38.3,36.5,37.7,33.7,37.3L33.7,37.3z M76.6,64.8c-0.1,0-0.2,0-0.4-0.1c-1.8,4.3-4.5,5.9-6.5,6.6
				c-1,0.3-2,0.4-2.7,0.4c-0.4,0-0.7,0-0.9-0.1c-1.9,3.6-5,6.6-9.1,7.5c5.1-3.6,7.7-7.8,9.6-13.6c0.6-1.8,1.1-3.7,1.7-5.6
				c0.1,1,0.1,2,0.1,3c-0.1,2.4-0.6,4.9-1.5,7.1c2,0.1,6.2-0.7,8.4-7.2c1-2.9,0.9-5.4-0.2-7.5c-0.6-1.2-1.5-2.1-2.4-2.8
				c-0.5-0.3-1.1-0.5-1.6-0.8c-0.3-0.2-0.8-0.4-1.3-0.6c-0.8,5.4-3.1,10.2-4,10.1c-0.5,0,0.3-6.2,0.3-6.2c-3.2-3.4-3.2-7.1-3-8.6
				c-5.1-2.9-10.6-5-16.1-6.9c5.5,0.6,11.8,2.5,16.9,5.2c2-8.5,1.4-14,0.6-17.3c-0.4-1.8-1-3.1-1.5-3.9c-1.1-0.8-2.2-1.4-3.3-2
				c-7.1-3.9-14.4-5.5-17.3-5.6c-6-0.1-15.6,2.2-18.3,4.5c-2.2,1.9-5,9.5-6,12.3l0,0.2L17.9,33c-1.1,1.4-2.6,3.8-2.8,4.6
				c0,0.2-0.1,0.5,0,0.7c1-0.9,3.5-2.6,8.5-2.6c0.1,0-2.1,0.3-4.7,1.9l0,0c-1.5,4.3-2.7,8.7-3.6,13.1c-0.2,1.1-0.7,3.4-1,4.5
				c-0.1-0.8-0.1-1.7-0.2-2.5c-1.4,3.5-2.3,7.3-1.7,11.1c0.1,0.6,0.2,1.3,0.4,1.9c0.6,1.8,1.7,3.5,3,4.9c5.4,6,13.5,9.2,21.4,10
				c3.7,0.4,7.5,0.2,11.2-0.2c1.7-0.2,3.4-0.5,5.1-0.8c-1.3,0.5-2.6,0.9-4,1.3c-6.8,1.8-14,1.6-20.8-0.4c-6.9-2-15.4-7.1-17.8-14.3
				c-1.7-5.6-0.1-11.6,2.5-16.7c0.3-0.5,0.5-1,0.8-1.5c0.2-2,0.6-4.1,1.1-6c-1.7-1-2.7-3-2.3-5c0.3-1.4,2.4-4.4,3-5.2
				c0.5-1.6,3.6-10.5,6.5-13c3-2.6,13.1-5.1,19.6-4.9c2.4,0.1,7.5,1.1,13,3.4c0.6-0.5,1.7-1.1,3.4-0.5c2.5,0.9,2.5,2.6,2.4,3.3
				C67.4,23.8,75,30,76.9,40.1c0.6,3-0.9,9.7-1.4,11.5c2.6,1.4,5.1,2.9,7.3,4.8c1.2,1.2,2.6,2.5,2.8,4.4c0.2,2.3-1.8,3.6-3.8,3.9
				C80.1,65.1,78.3,65,76.6,64.8L76.6,64.8z M70.8,59l-0.3-0.3c0,0,0.1,0,0.3,0.1c0.2-0.6,0.5-1,0.8-1.2c0.3-0.2,0.8-0.4,1.5-0.1
				c1.9,0.7,1.1,3,1.1,3s-0.1-1.8-0.9-1.9c0,0.7-0.3,1.6-0.4,2.7c-0.2,1.5-1,3.3-2.1,3.5c0.1,0.1,0.4,0.2,0.7,0.3
				c0.6,0.2,1.2-0.4,1.2-0.4s-0.6,1.2-2.1,0.9c-1.5-0.3-0.6-2.2-0.6-2.2l0,0c-0.3,0-0.4-0.1-0.4-0.1l0.5-0.2c0,0,1.4-0.4,1.6-1.7
				C71.8,60.1,70.8,59,70.8,59L70.8,59z M52.8,36.2c0,0,0.2,0,0.4,0.2c0.1-0.7,0.2-1.1,0.3-1.8c0-0.2,0-0.4-0.1-0.7
				c0-0.1-0.1-0.1-0.1-0.2c0.7,0.1,1,0.2,1.7,0.4c0.1,0,0.2,0,0.3,0.1c0,0,0,0,0,0c0.3,0.9,0.5,1.3,0.7,2.2c0.2-0.8,0.2-1.2,0.4-2
				c0.5,0.1,0.8,0.2,1.3,0.4c-0.5,0.9-0.8,1.3-1.3,2.2c0.7,0.2,1,0.3,1.7,0.5c-0.6,1-0.9,1.5-1.5,2.4c1.1-0.8,2.2-1.5,3.3-2.3
				c-0.6-0.2-1-0.3-1.6-0.6c0.4-0.7,0.6-1,1-1.7c1.3,0.5,2.5,0.9,3.7,1.4c-0.1,0.1-0.1,0.1-0.2,0.2c-0.1,0.1-0.2,0.3-0.3,0.6
				c0,0.1,0,0.2,0,0.3c0,0.1,0,0.2,0,0.2c-0.1,0.4-0.1,0.5-0.2,0.9c0,0-0.4-0.9-1.2-1.1c0,0,0.1-0.2,0.4-0.2
				c-0.4-0.2-0.7-0.3-1.1-0.4c-0.1,0.5-0.1,0.7-0.2,1.2c0.2-0.1,0.6-0.1,1.1,0.1c-0.1,0.5-0.1,0.7-0.2,1.2c0,0-0.3-0.7-0.9-1
				c-0.1,0.5-0.1,0.7-0.2,1.2c0.5,0.2,0.7,0.3,1.2,0.4c-0.2-0.3-0.3-0.5-0.3-0.5c0.9,0.5,1.5,0,1.5,0c-0.1,0.4-0.1,0.6-0.2,0.9
				c0,0.1,0,0.2-0.1,0.3c0,0.1,0,0.2-0.1,0.3c-0.1,0.2,0,0.5,0,0.7c0,0.1,0.1,0.2,0.1,0.3c-0.1,0-0.2-0.1-0.3-0.1
				c-2.1-0.8-4.1-1.5-6.2-2.2c-0.2-1-0.4-1.4-0.6-2.4c-0.2,0.8-0.2,1.2-0.4,2.1c-0.1,0-0.2,0-0.3-0.1c-0.1,0-0.2,0-0.3-0.1
				c-0.7-0.2-1-0.2-1.7-0.4c0.1-0.1,0.1-0.1,0.2-0.2c0.2-0.2,0.3-0.4,0.3-0.6c0.1-0.3,0.1-0.5,0.2-0.8C52.9,37.2,53,36.5,52.8,36.2
				L52.8,36.2z M54,29.1c0,0,0.3,0,0.5,0.3c0.2-1,0.3-1.5,0.5-2.6c0.1-0.3,0-0.7-0.1-1c-0.1-0.1-0.1-0.2-0.1-0.4
				c2.1,0.5,4.2,1,6.2,2c-0.1,0.1-0.1,0.1-0.2,0.2c-0.2,0.2-0.3,0.5-0.3,0.8c0,0.1,0,0.2,0,0.4c0,0.1,0,0.2,0,0.3
				c-0.1,0.5-0.1,0.7-0.2,1.2c0,0-0.5-1.2-1.8-1.4c0,0,0.2-0.2,0.6-0.3c-0.7-0.2-1-0.3-1.7-0.5c-0.1,0.7-0.2,1-0.3,1.7
				c0.4-0.2,1-0.3,1.7,0c-0.1,0.6-0.1,1-0.2,1.6c0,0-0.5-1-1.6-1.3c-0.2,0.9-0.2,1.4-0.4,2.3c0,0.3,0,0.7,0.1,1
				c0.1,0.1,0.1,0.2,0.2,0.4c-0.2,0-0.3-0.1-0.5-0.1c-0.9-0.2-1.4-0.3-2.4-0.5c-0.2,0-0.3-0.1-0.5-0.1c0.1-0.1,0.2-0.2,0.3-0.3
				c0.2-0.2,0.4-0.5,0.4-0.8c0.1-0.4,0.1-0.6,0.2-1C54.4,30.6,54.5,29.6,54,29.1L54,29.1z M61.2,27.8c-0.1-0.1-0.1-0.2-0.1-0.4
				c1.1,0.5,1.5,0.7,2.4,1.3c-0.1,0.1-0.1,0.1-0.1,0.2c-0.1,0.2-0.2,0.4-0.2,0.7c0,1-0.1,1.4-0.1,2.4c0.2,0,0.4,0,0.4,0
				c-0.4,0.2-0.5,1.1-0.6,1.5c0,0.4-0.1,0.6-0.1,1c0,0.3,0,0.7,0.1,1c0.1,0.2,0.1,0.2,0.1,0.4c-1.1-0.5-1.7-0.7-2.9-1.1
				c0.1-0.1,0.1-0.2,0.2-0.2c0.2-0.2,0.3-0.5,0.4-0.8c0.1-0.4,0.1-0.6,0.1-1.1c0-0.4,0.1-1.3-0.3-1.9c0,0,0.2,0.1,0.5,0.3
				c0.1-1,0.2-1.5,0.3-2.5C61.4,28.5,61.3,28.1,61.2,27.8L61.2,27.8z"/>
		</g>
	</g>
	<g id="shadow">
		<g>
			<path class="st1" d="M57.6,62.6c1,0.7,3.5-3,2.9-3.5c-0.6-0.5-0.7,0.2-1.4,0c-0.6-0.1-0.6-1.2-1.1-1.3
				C57.2,57.6,56.6,61.9,57.6,62.6L57.6,62.6z"/>
			<path class="st1" d="M70.5,37.3c0.4,5.2-0.5,9.1-1,10.9c0.3,0.3,0.7,0.5,1,0.8c0.4,0.2,1.2,0.5,1.6,0.7c0.6,0.3,1.2,0.6,1.8,0.9
				c0.6-2.7,1.7-8,1.2-10.3c-1.4-7.2-6-12.4-10.7-16c0.1,0.1,0.1,0.2,0.2,0.4C66.6,27.4,70.1,32.4,70.5,37.3L70.5,37.3z"/>
		</g>
	</g>
	<path class="st1" d="M75.1,55.5L75.1,55.5c-1.7-1.4-4.2-1.4-5.9-1.2c-1,4-2.7,7.1-3.4,7c-0.5,0,0.3-6.2,0.3-6.2
		c-1.2-1.2-1.9-2.5-2.4-3.7c-5.1,19.7-16.6,26.3-33.5,24.4c-11.5-1.3-16-8.6-17.7-13.3c0,0.5,0.1,0.9,0.2,1.4
		c0.1,0.6,0.2,1.3,0.4,1.9c0.6,1.8,1.7,3.5,3,4.9c5.4,6,13.5,9.2,21.4,10c3.7,0.4,7.5,0.2,11.2-0.2c1.7-0.2,3.4-0.5,5.1-0.8
		c-1.3,0.5-2.6,0.9-4,1.3c-0.6,0.1-1.1,0.3-1.7,0.4c3.9-0.4,6.9-1.2,9.2-2.3c-0.1,0-0.2,0.1-0.4,0.1c5.1-3.6,7.7-7.8,9.6-13.6
		c0.6-1.8,1.1-3.7,1.7-5.6c0.1,1,0.1,2,0.1,3c-0.1,2.4-0.6,4.9-1.5,7.1c2,0.1,6.2-0.7,8.4-7.2C76.1,60,76.1,57.5,75.1,55.5z
		 M74.3,60.5c0,0-0.1-1.8-1-1.9c0,0.7-0.3,1.6-0.4,2.7c-0.2,1.5-1,3.3-2.1,3.5c0.1,0.1,0.4,0.2,0.7,0.3c0.6,0.2,1.2-0.4,1.2-0.4
		s-0.6,1.2-2.1,0.9c-1.5-0.3-0.6-2.2-0.6-2.2c-0.3,0-0.4-0.1-0.4-0.1l0.5-0.2h0c0,0,1.4-0.4,1.6-1.7c0.2-1.2-0.8-2.3-0.8-2.3
		l-0.3-0.3c0,0,0.1,0,0.3,0.1c0.2-0.6,0.5-1,0.8-1.2c0.4-0.2,0.8-0.4,1.5-0.1C75.1,58.2,74.3,60.5,74.3,60.5z"/>
</g>
</svg>
