<?xml version="1.0" encoding="UTF-8"?><svg id="a" xmlns="http://www.w3.org/2000/svg" viewBox="0 0 14.93 14.96"><defs><style>.b{fill:#4285f4;}.c{fill:#fbbc05;}.d{fill:#34a853;}.e{fill:#ea4335;}</style></defs><g><path class="d" d="m10.07,11.23c-.61.37-1.41.61-2.51.61-1.9,0-3.49-1.22-4.1-2.94l-2.51,1.96c1.22,2.39,3.61,4.04,6.49,4.04,1.84,0,3.49-.67,4.78-1.78l-2.14-1.9Z"/><path class="c" d="m3.46,8.91c-.18-.49-.24-.98-.24-1.47s.06-.98.24-1.41h0l-2.51-1.84c-.49.98-.8,2.14-.8,3.37s.31,2.39.8,3.37l2.51-2.02Z"/><path class="e" d="m3.46,6.03c.61-1.71,2.2-2.94,4.16-2.94,1.04,0,1.96.37,2.69.98,0,0,1.35-1.35,2.14-2.14C11.23.82,9.52.15,7.44.15,4.62.15,2.17,1.8.94,4.13l2.51,1.9Z"/></g><path class="b" d="m14.66,6.27v-.12h-7.04v2.82h3.98c-.18.98-.67,1.78-1.53,2.27h0l2.14,1.84c1.53-1.35,2.57-3.37,2.57-5.63,0-.31-.06-.73-.12-1.16Z"/></svg>