<?xml version="1.0" encoding="utf-8"?>
<!-- Generator: Adobe Illustrator 26.5.3, SVG Export Plug-In . SVG Version: 6.00 Build 0)  -->
<svg version="1.1" id="a" xmlns="http://www.w3.org/2000/svg" xmlns:xlink="http://www.w3.org/1999/xlink" x="0px" y="0px"
	 viewBox="0 0 14.9 15" style="enable-background:new 0 0 14.9 15;" xml:space="preserve">
<style type="text/css">
	.st0{fill:#F9F9F9;}
</style>
<path class="st0" d="M10.2,11.8c0.4-0.2,0.8-0.4,1.2-0.6c-0.1-0.1-0.2-0.2-0.3-0.2h-0.1c-0.6,0.2-1.2,0.5-1.9,0.6
	c-0.4,0.1-0.8,0.1-1.2,0.2c-1.4,0.1-2.8-0.2-4.1-0.8H3.6c-0.1,0.1-0.1,0.1-0.2,0.2v0.1c0.4,0.2,0.8,0.4,1.2,0.6v0.1
	c-0.2,0.4-0.5,0.7-0.7,1.1c0,0-0.1,0.1-0.2,0.1c-1.2-0.4-2.4-1-3.5-1.8c-0.1,0-0.1-0.1-0.1-0.1c0-0.5,0-1.1,0-1.6
	c0-1.4,0.3-2.6,0.8-3.9C1.3,4.8,1.8,3.9,2.4,3c0.1-0.1,0.1-0.1,0.2-0.2C3.4,2.4,4.3,2.1,5.3,2c0,0,0.1,0,0.1,0.1
	c0.1,0.2,0.2,0.4,0.3,0.6c0.1,0.1,0.1,0.1,0.2,0.1C6.6,2.6,7.3,2.6,8,2.6c0.4,0,0.7,0.1,1,0.1c0.1,0,0.1-0.1,0.1-0.1
	c0.1-0.2,0.2-0.4,0.3-0.6C9.5,2,9.6,2,9.6,2c0.9,0.2,1.9,0.5,2.8,0.9c0.1,0,0.1,0.1,0.1,0.1c0.9,1.4,1.6,2.9,2,4.5
	c0.1,0.5,0.2,1,0.2,1.6c0.1,0.5,0,1,0,1.6c0,0.2,0,0.4-0.1,0.5c0,0.1-0.1,0.1-0.1,0.1C13.5,12,12.3,12.6,11,13h-0.1
	C10.7,12.6,10.5,12.2,10.2,11.8L10.2,11.8L10.2,11.8z M5.1,9.5c0.2,0,0.4-0.1,0.6-0.2C6.5,8.9,6.6,7.6,6,6.9
	C5.5,6.4,4.8,6.4,4.2,6.9C3.8,7.3,3.6,8.2,3.9,8.8C4.2,9.2,4.5,9.5,5.1,9.5z M11.3,8.1c0-0.4-0.1-0.7-0.2-0.9
	c-0.4-0.7-1.3-0.9-1.9-0.4C8.5,7.4,8.4,8.4,9,9c0.5,0.5,1.2,0.6,1.7,0.2C11.1,8.9,11.3,8.5,11.3,8.1z"/>
</svg>
