<?xml version="1.0" encoding="UTF-8"?><svg id="a" xmlns="http://www.w3.org/2000/svg" viewBox="0 0 14.93 14.96"><defs><style>.b{fill:#5865f2;}</style></defs><path class="b" d="m10.25,11.77c.42-.18.83-.42,1.25-.6-.12-.12-.24-.18-.3-.24h-.12c-.6.24-1.25.48-1.91.6-.42.06-.83.12-1.25.18-1.43.12-2.8-.18-4.11-.77h-.18c-.06.06-.12.12-.24.18v.06c.36.24.77.42,1.19.6v.06c-.24.36-.48.71-.66,1.13q-.06.06-.18.06c-1.25-.42-2.44-1.01-3.51-1.79-.06,0-.06-.06-.06-.12,0-.54,0-1.07,0-1.55,0-1.37.3-2.62.77-3.87.36-.95.83-1.85,1.43-2.74.06-.06.12-.12.18-.18.83-.36,1.79-.66,2.8-.83q.06,0,.12.06c.12.18.18.42.3.6.06.06.06.12.18.12.66-.12,1.37-.18,2.09-.12.36,0,.71.06,1.01.12.06,0,.12-.06.12-.06.12-.18.18-.42.3-.6q.06-.12.18-.12c.95.18,1.91.48,2.8.89.06,0,.12.06.12.12.95,1.37,1.61,2.92,1.97,4.53.12.48.18,1.01.18,1.55.06.54,0,1.01,0,1.55,0,.18,0,.36-.06.54,0,.06-.06.06-.06.12-1.07.77-2.26,1.37-3.57,1.79h-.12c-.18-.48-.42-.89-.66-1.25h0Zm-5.18-2.26c.24,0,.42-.06.6-.18.83-.48.95-1.73.3-2.38-.48-.54-1.19-.54-1.73-.06-.48.42-.66,1.31-.3,1.91.24.42.6.66,1.13.71Zm6.2-1.37c0-.42-.06-.71-.24-.95-.42-.71-1.31-.89-1.91-.36-.66.54-.71,1.55-.12,2.2.48.54,1.19.6,1.73.18.36-.3.54-.71.54-1.07Z"/></svg>