<?xml version="1.0" encoding="utf-8"?>
<!-- Generator: Adobe Illustrator 26.5.3, SVG Export Plug-In . SVG Version: 6.00 Build 0)  -->
<svg version="1.1" id="Capa_1" xmlns="http://www.w3.org/2000/svg" xmlns:xlink="http://www.w3.org/1999/xlink" x="0px" y="0px"
	 viewBox="0 0 100 100" style="enable-background:new 0 0 100 100;" xml:space="preserve">
<style type="text/css">
	.st0{fill:#212121;}
</style>
<g id="color">
	<g>
		<path class="st0" d="M34.8,34.2c-0.3,0-0.6,0.2-0.6,0.5s0.2,0.6,0.5,0.6s0.6-0.2,0.6-0.5S35.1,34.3,34.8,34.2z"/>
		<path class="st0" d="M38.3,34.4c-0.3,0-0.6,0.2-0.6,0.5s0.2,0.6,0.5,0.6s0.6-0.2,0.6-0.5S38.6,34.4,38.3,34.4z"/>
		<path class="st0" d="M41.8,34.9c-0.3,0-0.6,0.2-0.6,0.5s0.2,0.6,0.5,0.6s0.6-0.2,0.6-0.5S42.1,34.9,41.8,34.9z"/>
		<path class="st0" d="M45.8,36.4c0-0.3-0.2-0.6-0.5-0.6s-0.6,0.2-0.6,0.5s0.2,0.6,0.5,0.6S45.8,36.7,45.8,36.4z"/>
		<path class="st0" d="M36.5,57.7l2.7,7.9l0,0C39,63.1,37.8,59.8,36.5,57.7z"/>
		<path class="st0" d="M34.1,72.4c0.7,0.2,1.4,0.2,2.2,0.2c1.9,0,3.7-0.5,5.2-1.4c1.3-0.8,2.1-1.9,2.3-3.2l-1.9-0.4
			c-0.2,0.9-0.9,1.5-1.5,1.9c-1.5,1-3.8,1.4-5.9,0.9c-3.1-0.7-4.9-2.8-4.5-5.2L28.2,65C27.5,68.4,30,71.5,34.1,72.4z"/>
		<polygon class="st0" points="30.3,63.5 33.7,64.8 39.1,65.8 34.3,64 36.3,57.6 		"/>
		<path class="st0" d="M47.8,41.2c0,0,0.1,0,0.2,0c1.8-0.1,2.3-2.3,2.5-3.1c0.3-1.2,0.2-3-0.6-3.8c-0.2-0.2-0.3-0.3-0.6-0.5
			c-0.8-2.7-2.6-5-6.2-6c-1.1-1.2-3.4-4-3.3-5.7c0,0-1,1.7-1.2,3.7c-2.8-5-9.5-3.1-9.5-3.1c1.2,0.1,4.1,5.7,4.4,6.6
			c-2.3-0.3-4,1.1-4,1.1c1.9,0.4,2.9,0.9,3.4,1.2c-0.3,0.2-0.6,0.5-0.7,0.9c-0.4,1.7-1.6,4.6-1.7,4.9c-0.1,0.3-0.1,0.6,0,0.8
			c0.3,0.6,1,0.6,2.7,0.6c1.4,0,3.2,0.1,5.6,0.4c2.9,0.4,5,1,6.5,1.5C46.4,41,47.2,41.3,47.8,41.2L47.8,41.2z M33.2,37.4
			c-0.4,0-0.9,0-1.2,0c0.4-1,1.2-3.1,1.6-4.6c1.1-0.2,4.2-0.2,7.7,0.3c3.8,0.5,6.7,1.4,7.6,2.3c0.3,0.3,0.5,1.4,0.3,2.5
			c-0.4,1.8-0.9,2-1.2,2c-0.5,0-1.3-0.2-2.3-0.5c-1.6-0.5-3.7-1.1-6.7-1.5C36.5,37.5,34.5,37.4,33.2,37.4L33.2,37.4z"/>
		<path class="st0" d="M87.9,58.4c-2.2-1.9-4.7-3.5-7.3-4.8C81,51.7,82.5,45,82,42c-1.9-10-9.5-16.3-15.7-19.9
			c0.1-0.7,0.1-2.4-2.4-3.3c-1.7-0.6-2.8,0-3.4,0.5c-5.6-2.3-10.7-3.3-13-3.4C41,15.7,31,18.3,27.9,20.8c-2.9,2.5-6,11.4-6.5,13
			c-0.6,0.8-2.8,3.8-3,5.2c-0.4,1.9,0.6,4,2.3,5c-0.5,2-0.8,4-1.1,6c-0.2,0.5-0.5,1-0.8,1.5c-2.6,5-4.2,11-2.5,16.6
			c2.4,7.1,10.9,12.3,17.8,14.3c6.7,1.9,14,2.2,20.8,0.4c1.3-0.3,2.7-0.8,4-1.3c-1.7,0.3-3.4,0.6-5.1,0.8c-3.7,0.4-7.5,0.6-11.2,0.2
			c-8-0.8-16-4-21.4-10c-1.3-1.5-2.4-3.1-3-4.9c-0.2-0.6-0.3-1.2-0.4-1.9c-0.6-3.8,0.2-7.6,1.7-11.1c0,0.8,0.1,1.7,0.2,2.5
			c0.2-1.1,0.7-3.4,1-4.5c0.9-4.5,2.2-8.8,3.6-13.1l0,0c2.5-1.7,4.8-1.9,4.7-1.9c-5,0-7.6,1.7-8.5,2.6c0-0.2,0-0.5,0-0.7
			c0.2-0.8,1.7-3.2,2.8-4.6l0.1-0.1v-0.2c0.9-2.8,3.8-10.4,6-12.3c2.7-2.3,12.3-4.6,18.3-4.5c2.9,0.1,10.2,1.7,17.3,5.6
			c1.1,0.6,2.2,1.3,3.3,2c0.5,0.8,1.1,2.1,1.5,3.9c0.8,3.2,1.3,8.8-0.6,17.3C63.8,44,57.5,42,52,41.5c5.6,1.8,11,4,16.1,6.9
			c-0.2,1.5-0.3,5.3,3,8.6c0,0-0.8,6.1-0.3,6.2c1,0.1,3.3-4.7,4-10.1c0.4,0.2,0.9,0.5,1.3,0.6c0.5,0.3,1.1,0.5,1.6,0.8
			c0.9,0.7,1.8,1.6,2.4,2.8c1.1,2.1,1.1,4.6,0.2,7.5c-2.2,6.6-6.4,7.3-8.4,7.2c0.9-2.3,1.4-4.7,1.5-7.1c0-1,0-2-0.1-3
			c-0.6,1.9-1.1,3.8-1.7,5.6c-1.9,5.8-4.6,10-9.6,13.6c4.2-1,7.2-3.9,9.1-7.5c0.3,0,0.6,0.1,0.9,0.1c0.8,0,1.7-0.1,2.7-0.4
			c2-0.6,4.7-2.3,6.5-6.6c0.1,0,0.2,0,0.4,0.1c1.7,0.2,3.5,0.3,5.2,0c2-0.3,3.9-1.7,3.8-4C90.4,60.9,89.1,59.5,87.9,58.4L87.9,58.4z
			 M78.8,52.6c-0.6-0.3-1.2-0.6-1.8-0.9c-0.4-0.2-1.2-0.6-1.6-0.7c-1.6-1.4-3.6-2.8-5.8-4c2.1-8.8,1.5-14.6,0.6-17.9
			c-0.3-1.1-0.6-2-0.9-2.7c4.7,3.5,9.3,8.7,10.7,16C80.5,44.6,79.5,49.9,78.8,52.6z"/>
		<path class="st0" d="M75.1,65l-0.5,0.2c0,0,0.2,0.1,0.4,0.1l0,0l0,0c0,0-0.8,1.9,0.6,2.2c1.5,0.3,2.1-0.9,2.1-0.9
			s-0.6,0.6-1.2,0.4c-0.3-0.1-0.5-0.1-0.7-0.3c1.1-0.2,1.9-2,2.1-3.5c0.2-1.1,0.5-2,0.4-2.7c0.8,0.2,0.9,1.9,0.9,1.9s0.8-2.3-1.1-3
			c-0.7-0.2-1.1-0.1-1.5,0.1c-0.3,0.2-0.6,0.6-0.8,1.2c-0.2-0.1-0.3-0.1-0.3-0.1l0.3,0.3c0,0,1,1.1,0.8,2.3
			C76.4,64.5,75.1,65,75.1,65L75.1,65z"/>
		<path class="st0" d="M59.2,33.9c-0.1,0.3-0.2,0.6-0.4,0.8c-0.1,0.1-0.2,0.2-0.3,0.3c0.2,0,0.3,0.1,0.5,0.1c1,0.2,1.4,0.3,2.4,0.5
			c0.2,0,0.3,0.1,0.5,0.1c-0.1-0.2-0.1-0.2-0.2-0.4c-0.1-0.3-0.2-0.7-0.1-1c0.2-0.9,0.2-1.4,0.4-2.3c1.1,0.3,1.6,1.3,1.6,1.3
			c0.1-0.6,0.2-1,0.2-1.6c-0.8-0.3-1.4-0.2-1.7,0c0.1-0.7,0.2-1,0.3-1.7c0.7,0.2,1,0.3,1.7,0.5c-0.4,0.1-0.6,0.3-0.6,0.3
			c1.3,0.2,1.8,1.4,1.8,1.4c0.1-0.5,0.1-0.8,0.2-1.2c0-0.1,0-0.2,0-0.3c0-0.1,0-0.2,0-0.4c0-0.3,0.2-0.6,0.3-0.8
			c0.1-0.1,0.1-0.1,0.2-0.2c-2-0.9-4-1.5-6.2-2c0.1,0.1,0.1,0.2,0.1,0.4c0.1,0.3,0.2,0.6,0.1,1c-0.2,1-0.3,1.6-0.5,2.6
			C59.2,31.1,59,31,59,31c0.4,0.5,0.3,1.5,0.3,1.8C59.3,33.3,59.2,33.5,59.2,33.9L59.2,33.9z"/>
		<path class="st0" d="M66.2,33.2c-0.2-0.2-0.5-0.3-0.5-0.3c0.4,0.5,0.3,1.5,0.3,1.9c-0.1,0.4-0.1,0.6-0.1,1.1
			c-0.1,0.3-0.2,0.6-0.4,0.8c-0.1,0.1-0.1,0.2-0.2,0.2c1.2,0.4,1.8,0.7,2.9,1.1c-0.1-0.2-0.1-0.2-0.1-0.4c-0.1-0.3-0.2-0.7-0.1-1
			c0.1-0.4,0.1-0.6,0.1-1s0.2-1.3,0.6-1.5c0,0-0.2-0.1-0.4,0c0.1-1,0.1-1.5,0.1-2.4c0-0.3,0.1-0.5,0.2-0.7c0.1-0.1,0.1-0.1,0.1-0.2
			c-0.9-0.5-1.4-0.8-2.4-1.3c0.1,0.1,0.1,0.2,0.1,0.4c0.1,0.3,0.2,0.6,0.1,0.9C66.4,31.6,66.3,32.1,66.2,33.2L66.2,33.2z"/>
		<path class="st0" d="M57.8,40.2c0,0.2-0.2,0.4-0.3,0.6c-0.1,0.1-0.1,0.1-0.2,0.2c0.7,0.1,1,0.2,1.7,0.4c0.1,0,0.2,0,0.3,0.1
			c0.1,0,0.2,0,0.3,0.1c0.2-0.8,0.3-1.2,0.4-2.1c0.3,0.9,0.4,1.4,0.6,2.4c2.1,0.7,4.2,1.4,6.2,2.2c0.1,0,0.2,0.1,0.3,0.1
			c0-0.1-0.1-0.2-0.1-0.3c-0.1-0.2-0.1-0.5,0-0.7c0-0.1,0-0.2,0.1-0.3c0-0.1,0-0.2,0.1-0.3c0.1-0.4,0.1-0.6,0.2-0.9
			c0,0-0.6,0.5-1.5,0c0,0,0.1,0.2,0.3,0.5c-0.5-0.2-0.7-0.3-1.2-0.4c0.1-0.5,0.2-0.7,0.2-1.2c0.7,0.3,0.9,1,0.9,1
			c0.1-0.5,0.1-0.7,0.2-1.2c-0.5-0.2-0.8-0.2-1.1-0.1c0.1-0.5,0.1-0.7,0.2-1.2c0.5,0.2,0.7,0.3,1.1,0.4c-0.3,0.1-0.4,0.2-0.4,0.2
			c0.9,0.2,1.2,1.1,1.2,1.1c0.1-0.4,0.1-0.5,0.2-0.9c0-0.1,0-0.2,0-0.2c0-0.1,0-0.2,0-0.3c0-0.2,0.1-0.4,0.3-0.6
			c0.1-0.1,0.1-0.1,0.2-0.2c-1.2-0.5-2.5-1-3.7-1.4c-0.4,0.7-0.6,1-1,1.7c0.6,0.2,1,0.3,1.6,0.6c-1.1,0.8-2.2,1.6-3.3,2.3
			c0.6-1,0.9-1.5,1.5-2.4c-0.7-0.2-1-0.3-1.7-0.5c0.5-0.9,0.8-1.3,1.3-2.2c-0.5-0.2-0.8-0.2-1.3-0.4c-0.1,0.8-0.2,1.2-0.4,2
			c-0.3-0.9-0.4-1.4-0.7-2.2l0,0c-0.1,0-0.2,0-0.3-0.1c-0.7-0.2-1-0.2-1.7-0.4c0,0.1,0.1,0.1,0.1,0.2c0.1,0.2,0.1,0.4,0.1,0.7
			c-0.1,0.7-0.2,1.1-0.3,1.8c-0.2-0.2-0.4-0.2-0.4-0.2c0.3,0.3,0.2,1,0.2,1.3C58,39.7,57.9,39.9,57.8,40.2L57.8,40.2z"/>
		<path class="st0" d="M24.9,58.7c-1-0.3-1.9-1-2.7-1.6c0.2,1.7,2,2.7,3.6,2.8c2.1,0.2,4.3-1,5.2-2.9c0.4-0.7,0.8-2.5,1-3.3
			c0.2-0.7,0.7-2.6,0.9-3.3c0.1-0.3,0.2-0.8,0.3-1.2c0.2-1.7-0.4-3.5-1.7-4.6c-2.7-2.4-7.1-1.4-8.3,2c-0.3,0.7-0.4,1.5-0.5,2.3
			s-0.2,1.5-0.2,2.3c0.2-0.7,0.9-2.5,1.1-3.2l0.2-0.5c0.3-0.8,0.8-1.5,1.4-2.1c2.2-1.9,5.6-0.9,6.5,1.8c0.2,0.6,0.3,1.3,0.2,2v-0.1
			c-0.4-0.7-1-1.1-1.8-1.3c-0.7-0.2-1.5-0.1-2.2,0.3c-0.7,0.4-1.1,1-1.3,1.8l-1,3.8c-0.2,0.7-0.1,1.5,0.3,2.2s1,1.1,1.8,1.3
			c0.2,0,0.3,0.1,0.5,0.1c0.6,0.1,1.2-0.1,1.7-0.4C28.8,58.4,26.8,59.3,24.9,58.7L24.9,58.7z"/>
		<path class="st0" d="M57.9,49.3c-2.9-2.5-7.6-1.5-8.9,2c-0.3,0.8-0.4,1.5-0.5,2.3s-0.2,1.5-0.2,2.3c0.3-0.7,0.9-2.6,1.2-3.3
			l0.2-0.5c0.3-0.8,0.8-1.6,1.5-2.1c2.3-1.9,6-0.9,7,1.8c0.2,0.7,0.3,1.4,0.2,2c0,0,0-0.1-0.1-0.1c-0.4-0.7-1.1-1.2-1.9-1.4
			c-0.8-0.2-1.6-0.1-2.3,0.3s-1.2,1-1.4,1.8l-1.1,3.9c-0.2,0.8-0.1,1.5,0.3,2.2c0.4,0.7,1.1,1.2,1.9,1.4c0.2,0,0.3,0.1,0.5,0.1
			c0.7,0.1,1.3-0.1,1.8-0.4c-1,1.7-3.1,2.6-5.2,1.9c-1.1-0.4-2-1-2.9-1.7c0.3,1.8,2.2,2.8,3.9,2.9c2.3,0.2,4.6-1,5.5-3
			c0.4-0.8,0.8-2.6,1.1-3.4c0.2-0.7,0.7-2.6,0.9-3.3c0.1-0.4,0.2-0.8,0.3-1.2C60,52.3,59.3,50.5,57.9,49.3L57.9,49.3z"/>
		<path class="st0" d="M50,1.9C23.4,1.9,1.9,23.4,1.9,50S23.4,98.1,50,98.1S98.1,76.6,98.1,50S76.6,1.9,50,1.9z M87.3,68
			c-1.5,0.3-3.2,0.3-5.1,0.1c-2,4.1-4.8,5.8-6.9,6.4c-1.1,0.3-2.2,0.5-3.4,0.5c-2.1,3.7-5.1,6.2-8.7,7.3c-2.8,1.3-6.2,2.2-10,2.5
			c-2.6,0.5-5.3,0.8-8,0.8c-3.9,0-7.8-0.6-11.6-1.7c-3.9-1.1-7.8-3.1-11-5.4c-3.9-2.8-6.5-6.2-7.7-9.7l0,0c-2-6.7,0.3-13.3,2.6-17.7
			c0.2-0.3,0.3-0.6,0.5-1c0.1-0.1,0.1-0.2,0.2-0.3c0.2-1.8,0.5-3.6,0.9-5.2c-1.7-1.4-2.5-3.6-2.1-5.8c0.3-1.5,2-4.1,3.1-5.6
			c0.9-2.7,3.8-10.9,6.9-13.4c3.3-2.8,13.7-5.4,20.5-5.3c2.6,0.1,7.6,1.1,12.9,3.2c0.8-0.5,2.2-0.9,4-0.3c2.6,0.9,3.2,2.7,3.2,3.8
			c6.2,3.7,13.8,10.2,15.8,20.5c0.6,2.9-0.5,8.3-1.2,11.2c2.7,1.5,4.9,3,6.7,4.6l0,0c1.4,1.3,2.9,2.9,3.2,5.1l0,0
			C92.4,65.7,89.9,67.5,87.3,68L87.3,68z"/>
	</g>
</g>
</svg>
